<svg width="149" height="149" viewBox="0 0 149 149" fill="none" xmlns="http://www.w3.org/2000/svg">
<path d="M106.315 100.399C127.138 74.5637 128.064 40.76 108.382 24.8963C88.6999 9.03253 55.8639 17.1161 35.0405 42.9514C14.2171 68.7867 13.2917 102.59 32.9736 118.454C52.6556 134.318 85.4916 126.234 106.315 100.399Z" fill="black"/>
<path d="M107.899 24.8954C100.085 18.8084 90.2339 15.9495 80.3752 16.9074C87.9798 17.3747 95.2582 20.1627 101.229 24.8954C120.909 40.7598 119.986 74.5621 99.1636 100.397C86.4572 116.162 69.2809 125.301 53.3461 126.439C70.9985 127.761 91.3267 118.391 105.831 100.397C126.654 74.5621 127.581 40.7577 107.899 24.8954Z" fill="white"/>
<path d="M114.542 27.0725C113.505 26.2361 112.429 25.4501 111.317 24.7174C111.244 24.6819 111.167 24.6508 111.09 24.6243C110.733 24.448 110.335 24.3749 109.939 24.4132C109.533 24.4542 109.151 24.6247 108.849 24.8996C108.781 24.9433 108.716 24.991 108.654 25.0423C108.615 25.0837 108.602 25.1396 108.567 25.1831C108.532 25.2265 108.482 25.2534 108.449 25.301C108.414 25.375 108.384 25.4511 108.358 25.5287C108.18 25.8887 108.106 26.2919 108.147 26.6917C108.165 26.8204 108.195 26.9472 108.236 27.0704C108.308 27.3308 108.443 27.5695 108.629 27.7657C108.674 27.8355 108.722 27.9025 108.774 27.9665C125.905 43.7688 124.119 75.0174 104.708 99.1036C84.6299 124.009 53.0336 131.966 34.2762 116.845C34.1546 116.765 34.0249 116.697 33.8892 116.644L33.7754 116.584C33.5776 116.501 33.3682 116.45 33.1546 116.431L32.989 116.417C32.5473 116.406 32.1156 116.549 31.768 116.822C31.6982 116.858 31.6305 116.898 31.5652 116.942C31.5238 116.977 31.5094 117.027 31.4742 117.066C31.4411 117.102 31.3955 117.118 31.3645 117.155C31.3289 117.216 31.2964 117.279 31.2672 117.344C31.1669 117.489 31.0856 117.646 31.0251 117.811C31.0052 117.877 30.9886 117.944 30.9754 118.012C30.9269 118.213 30.9088 118.42 30.9216 118.627L30.9403 118.747C30.9707 118.971 31.0378 119.19 31.1389 119.392L31.1948 119.486C31.2563 119.619 31.3319 119.746 31.4204 119.864C32.8777 121.475 34.4595 122.968 36.1511 124.33C44.0589 130.585 53.8853 133.915 63.9665 133.756C81.743 133.756 100.989 124.485 114.726 107.443C136.339 80.6297 136.256 44.5738 114.542 27.0725Z" fill="black"/>
<path d="M42.7382 92.5456C42.8892 92.0654 44.0005 87.9638 44.1475 87.4858C56.3944 87.7031 56.9987 87.2954 58.8178 81.2588C62.253 69.8603 63.2546 67.8198 66.692 56.4213C67.8985 52.4232 67.6853 51.5499 61.953 50.4572L58.4618 49.8136C58.5922 49.3914 59.3744 45.5195 59.5048 45.0994C67.9567 45.1048 76.4 44.5594 84.781 43.4666L73.4011 82.7861C71.6255 88.924 71.8449 89.4166 83.6035 91.6888C83.4669 92.1731 82.3618 96.2788 82.2273 96.7652L42.7382 92.5456Z" fill="white"/>
<path d="M110.173 26.4413C111.222 27.1325 112.244 27.8789 113.24 28.6804C134.1 45.4926 134.042 80.1744 113.114 106.14C92.1855 132.105 58.3066 139.53 37.4466 122.718C35.8393 121.424 34.3364 120.006 32.9518 118.476" stroke="white" stroke-width="0.5" stroke-miterlimit="10"/>
<path d="M106.315 100.399C127.138 74.5637 128.064 40.76 108.382 24.8963C88.6999 9.03252 55.8639 17.1161 35.0405 42.9514C14.2171 68.7867 13.2917 102.59 32.9736 118.454C52.6556 134.318 85.4916 126.234 106.315 100.399Z" stroke="black" stroke-width="0.5" stroke-miterlimit="10"/>
<path d="M106.314 100.399L113.114 106.142M99.1595 108.149L105.153 114.591M91.5874 114.449L96.5085 121.323M83.2807 119.991L87.1547 126.911M111.825 92.6594L119.045 97.655" stroke="white" stroke-width="0.5" stroke-miterlimit="10"/>
<path d="M42.7382 92.5456C42.8892 92.0654 44.0005 87.9638 44.1475 87.4858C56.3944 87.7031 56.9987 87.2954 58.8178 81.2588C62.253 69.8603 63.2547 67.8198 66.692 56.4213C67.8985 52.4232 67.6853 51.5499 61.953 50.4572L58.4618 49.8136C58.5922 49.3914 59.3744 45.5195 59.5048 45.0994C67.9567 45.1048 76.4 44.5594 84.781 43.4666L73.4011 82.7861C71.6256 88.924 71.8449 89.4166 83.6035 91.6888C83.4669 92.1731 82.3618 96.2788 82.2273 96.7652L42.7382 92.5456Z" stroke="black" stroke-width="0.5" stroke-linecap="round" stroke-linejoin="round"/>
</svg>
