<svg width="1920" height="1080" viewBox="0 0 1920 1080" fill="none" xmlns="http://www.w3.org/2000/svg">
<g clip-path="url(#clip0_517_590)">
<path d="M192.026 3.71161C204.385 4.07172 216.339 1.13688 228.585 0.434676C227.307 7.8528 223.36 14.7308 221.408 22.0048C220.489 33.2581 228.518 45.1775 221.251 55.8905C214.433 65.8654 197.656 65.2352 185.612 63.5427C155.153 57.7991 128.216 44.3852 99.4626 34.9866C81.2503 27.7485 61.8045 21.3567 41.0354 22.401C43.7717 28.1986 47.4725 33.6722 52.0255 38.6956C61.3111 35.8868 71.5835 34.0863 81.34 36.553C118.011 45.1775 146.832 68.4761 184.939 74.0577C199.159 76.9746 213.222 72.3653 227.105 70.4387C225.266 80.1975 218.358 89.1281 219.12 99.2109C219.277 110.716 221.655 123.716 212.302 133.529C204.362 142.459 187.182 143.306 176.708 136.824C149.524 120.601 139.162 93.1072 115.409 74.3998C103.432 64.623 90.6705 53.3518 72.4358 52.3075C83.8072 64.9291 99.5747 74.3098 112.18 86.0672C133.173 106.251 152.484 128.253 163.003 153.388C169.239 168.261 171.639 183.871 176.214 199.067C211.427 199.878 246.596 197.627 281.809 197.969C301.973 197.645 322.136 196.889 342.322 197.339C383.479 197.915 424.658 196.835 465.838 197.537C471.467 197.303 478.712 197.933 482.458 193.738C489.5 186.32 487.841 176.273 485.642 167.739C473.665 125.048 437.533 89.8122 425.085 47.2301C422.146 36.517 419.881 24.9757 424.771 14.4067C427.35 8.73504 431.836 2.6313 439.708 1.17288C453.726 -1.45587 467.43 3.26148 480.843 5.92624C489.298 8.01484 497.642 4.84593 505.828 3.42352C510.045 24.6876 501.522 45.6096 500.603 66.7837C499.212 102.416 507.219 137.634 510.606 173.05C510.875 184.681 513.252 196.709 509.327 208.106C505.313 216.208 493.066 216.983 483.714 216.947C432.867 216.605 381.999 216.532 331.153 216.226C279.364 217.361 227.554 215.47 175.788 216.929C177.268 249.392 168.319 282.899 144.836 309.781C131.805 325.176 110.161 336.555 86.6333 337.185C72.4358 337.653 61.3335 329.155 47.9211 327.066C39.2187 325.734 32.4227 331.819 29.3051 337.635C24.4381 347.088 25.0885 357.567 24.9988 367.614C25.4025 377.283 24.6848 387.023 26.3445 396.656C26.8828 400.527 29.5294 405.1 35.2488 404.812C68.0622 405.749 100.943 404.758 133.779 405.01C146.832 405.299 160.559 403.696 173.007 407.657C179.377 409.242 179.713 415.291 180.206 419.739C179.175 482.757 178.614 545.829 179.534 608.865C178.704 662.304 178.726 715.761 179.197 769.201C180.565 813.565 180.61 857.948 181.709 902.331C180.633 932.561 186.015 962.81 181.507 992.987C186.756 992.447 192.026 991.96 197.32 991.6C197.678 1008.36 194.561 1025.04 195.974 1041.8C202.321 1042.68 208.736 1044.12 215.263 1043.6C220.264 1039.04 219.39 1032.44 220.354 1026.8C221.184 1010.6 223.225 994.283 220.623 978.114C219.524 971.344 218.627 964.557 218.178 957.751C228.967 957.679 239.89 958.111 250.498 956.256C260.053 954.69 271.133 953.033 279.477 958.273C291.297 964.647 290.691 977.934 287.484 987.765C279.23 1007.44 260.973 1022.75 246.102 1039.26C241.549 1043.92 240.787 1049.94 239.733 1055.59C255.792 1057.84 272.165 1058.44 288.426 1057.43C325.052 1055.91 361.745 1057.1 398.372 1057.37C439.551 1056.29 480.708 1057.88 521.887 1057.55C556.966 1059.12 592.067 1057.68 627.191 1058.04C662.315 1057.7 697.483 1057.63 732.629 1057.84C763.581 1056.69 794.936 1059.57 825.507 1054.29C858.208 1050.55 889.653 1042.16 920.493 1032.9C920.403 1032.02 920.201 1030.24 920.112 1029.36C899.455 1023.45 878.932 1017.15 857.715 1012.67C825.013 1005.57 791.123 1002.89 757.368 1001.59C696.788 1002.49 636.207 1001.76 575.605 1001.5C554.252 1001.99 532.878 1000.48 511.57 1001.92C522.964 1012.16 538.664 1019.04 548.241 1030.62C553.019 1035.93 553.535 1044.21 547.098 1048.82C540.369 1053.88 530.523 1053.93 521.865 1053.93C441.839 1051.49 361.723 1052.06 281.675 1052.03C273.667 1051.58 264.225 1052.04 258.057 1047.18C253.997 1039.22 262.789 1032.45 268.06 1026.55C283.94 1009.91 302.219 991.186 298.967 968.878C299.618 964.791 295.872 958.327 302.13 956.4C311.707 956.454 321.149 959.155 330.749 957.751C340.864 956.67 351.608 953.303 361.521 956.886C371.39 960.343 374.642 970.3 372.399 978.168C369.08 989.566 358.583 998.568 347.01 1005.21C333.081 1013.76 316.529 1018.95 302.152 1026.93C297.218 1029.43 294.84 1033.82 292.239 1037.8C304.956 1036.02 314.039 1028.29 324.783 1023.31C337.881 1017.1 351.114 1010.97 363.338 1003.66C372.556 997.902 381.303 990.538 383.86 981.085C385.812 973.271 383.636 965.331 383.008 957.498C394.379 958.273 405.863 958.525 417.19 957.084C426.453 955.914 437.062 955.23 444.844 960.307C455.902 966.933 455.453 980.473 448.433 989.116C436.164 1003.97 415.507 1012.29 395.68 1019.11C376.392 1025.83 354.793 1027.9 336.827 1037.08C348.512 1036.9 359.861 1034.49 370.829 1031.41C384.645 1027.57 399.493 1025.86 414.05 1027.66C432.441 1029.18 449.577 1035.57 467.991 1037.01C486.854 1038.54 505.873 1038.59 524.826 1038.02C525.207 1036.99 526.014 1034.9 526.418 1033.86C503.675 1029.61 480.618 1036.67 457.808 1033.28C450.945 1032.24 443.521 1030.96 438.519 1026.75C434.079 1023.36 433.181 1017.76 435.514 1013.35C440.762 1002.75 453.726 996.156 459.311 985.749C462.967 976.458 459.356 966.663 459.176 957.192C462.541 957.607 465.95 957.967 469.247 958.723C475.819 966.339 479.878 975.162 485.934 983.066C547.232 982.742 608.508 983.318 669.806 983.3C695.98 982.634 722.155 983.552 748.352 983.246C801.463 982.346 854.687 989.44 904.838 1003.41C921.547 1007.57 937.382 1013.64 954.024 1017.94C962.054 1020.25 969.724 1016.05 977.081 1014C1009.67 1004.28 1042.03 993.275 1076.69 989.169C1113.94 982.994 1152.18 982.075 1190.09 983.12C1208.03 983.678 1225.95 982.039 1243.92 982.652C1272.29 983.48 1300.73 983.372 1329.08 981.697C1360.59 981.337 1392.15 981.049 1423.66 981.967C1427.3 981.769 1431.89 982.328 1434.61 979.861C1441.9 973.559 1443.74 964.611 1450.08 957.823C1451.85 955.176 1455.94 955.68 1458.74 956.886C1462.19 966.231 1455.69 975.99 1459.48 985.352C1463.59 996.408 1477.13 1002.93 1482.38 1013.51C1485.34 1019.62 1481.86 1027.02 1474.53 1029.95C1463.43 1034.7 1450.22 1034.25 1438.06 1033.28C1422.83 1031.84 1407.42 1032.33 1392.28 1034.2C1392.67 1035.06 1393.38 1036.83 1393.76 1037.71C1412.54 1038.02 1431.38 1038.86 1450.17 1037.86C1465.67 1036.92 1480.52 1032.94 1495.52 1029.93C1512.1 1026.6 1529.55 1028.38 1545.58 1032.65C1557.14 1035.77 1568.98 1038.31 1581.22 1038.79C1553.57 1026.12 1520.87 1022.14 1494 1008.09C1482.25 1002.49 1471.52 994.499 1467.11 983.876C1463.56 975.684 1465.67 965.115 1475.16 960.073C1484.33 955.158 1495.91 956.652 1506.11 958.093C1515.44 959.515 1524.86 958.075 1534.17 957.228C1534.12 969.004 1532.6 981.661 1540.49 992.23C1551.35 1008.15 1572.9 1015.73 1591.27 1024.84C1602.8 1029.97 1612.76 1038.04 1626.44 1039.26C1623.61 1035.95 1621.15 1032.27 1616.95 1029.97C1596.77 1019.31 1574.2 1010.74 1557.88 996.084C1550.74 989.746 1545.14 981.481 1546.41 972.695C1546.91 965.043 1555.07 957.913 1564.81 957.751C1573.08 957.517 1581.25 959.065 1589.5 959.371C1599.41 959.875 1609.22 958.183 1619.04 957.39C1619.11 970.03 1617.85 983.246 1624.22 995.165C1631.91 1009.23 1643.4 1021.63 1654.1 1034.25C1657.12 1038.31 1661.03 1042.84 1659.66 1047.83C1655.02 1054.28 1644.38 1053.09 1636.51 1053.45C1602.89 1052.57 1569.25 1053.29 1535.63 1052.57C1486.24 1051.13 1436.85 1053.77 1387.46 1052.91C1380.33 1052.46 1370.77 1051.77 1368.04 1045.42C1364.79 1037.95 1370.62 1030.47 1376.45 1024.98C1386.7 1016.16 1399.06 1009.12 1410 1000.89C1380.87 1000.22 1351.69 1000.3 1322.55 1000.67C1289.67 1002.57 1256.72 1001.09 1223.84 1001.43C1193.14 1002.48 1162.41 999.937 1131.77 1002.1C1104.77 1003.16 1077.99 1006.89 1052.2 1013.31C1032.82 1018.09 1013.24 1022.59 994.755 1029.38C1013.64 1036.56 1033.94 1040.77 1053.9 1045.47C1081.64 1051.04 1109.79 1056.24 1138.48 1057.01C1154.96 1057.77 1171.45 1056.83 1187.93 1056.94C1217.09 1057.1 1246.23 1058.17 1275.36 1057.82C1314.25 1057.45 1353.17 1058.67 1392.04 1057.01C1421.17 1057.05 1450.33 1056.62 1479.46 1057.1C1533.09 1059.48 1586.88 1056.72 1640.48 1059.25C1652.86 1060.6 1665.44 1059.59 1677.31 1056.49C1674.69 1048.64 1670.67 1041.1 1664.53 1034.61C1652.14 1021.22 1639.88 1007.48 1632.29 991.834C1629.07 984.794 1627.14 976.872 1630.03 969.544C1632.38 963.314 1639.45 958.183 1647.68 957.678C1658.18 956.94 1668.47 959.875 1678.99 959.353C1685.52 959.299 1692.09 958.183 1698.62 958.849C1700.73 964.809 1699.45 971.056 1698.26 977.052C1692.88 999.829 1697.38 1023 1698.68 1045.9C1706.44 1045.45 1714.18 1044.84 1721.97 1044.32C1722.3 1033.93 1722.01 1023.49 1719.9 1013.21C1719.36 1009.05 1717.97 1004.64 1720.08 1000.62C1723.69 998.604 1727.8 997.272 1731.79 995.777C1727.6 970.75 1731 945.507 1730.29 920.372C1731.16 884.956 1732.33 849.54 1732.44 814.124C1731.88 775.07 1735.49 736.089 1735.31 697.054C1737.06 612.466 1737.15 527.824 1737.04 443.217C1737.31 433.459 1735.8 423.394 1739.15 413.887C1742.31 407.369 1752.74 408.305 1759.83 407.819C1803.27 408.503 1846.76 408.809 1890.23 408.593C1894.06 392.767 1891.86 376.616 1891.06 360.664C1890.07 351.049 1888.23 340.102 1878.59 333.44C1871.25 328.579 1862.39 333.764 1855.3 336.267C1842.39 342.136 1826.6 344.045 1812.42 340.084C1789.39 334.592 1773.24 318.784 1762.23 302.417C1744.93 277.57 1739.28 248.69 1738.76 220.566C1705.41 219.971 1672.08 220.674 1638.75 220.872C1569.94 219.395 1501.13 221.448 1432.32 221.304C1426.29 220.962 1419.92 220.62 1414.62 218.099C1409.22 213.976 1408.21 207.566 1407.13 201.93C1403.45 173.05 1412.34 144.476 1413.01 115.65C1417.2 85.0769 1416.24 53.856 1406.86 23.9134C1405.27 17.1975 1401.12 9.09515 1407.83 3.24348C1418.23 3.60358 1428.06 7.97883 1438.62 6.79049C1451.9 5.56614 1465.36 1.55099 1478.77 4.34179C1490.52 7.33065 1494.38 18.3858 1494.92 27.2263C1495.5 50.561 1483.52 72.4013 1472.31 93.4313C1457.53 117.486 1440.08 141.001 1432.63 167.45C1430.75 176.129 1428.98 185.258 1431.65 193.936C1432.9 198.419 1438.64 200.634 1443.89 201.012C1455.71 202.038 1467.62 201.318 1479.49 201.39C1528.83 201.57 1578.15 200.526 1627.5 201.408C1665.94 201.786 1704.4 201.678 1742.87 201.444C1746.01 172.276 1757.09 143.414 1776.83 118.675C1788.49 103.748 1802.69 90.1724 1818.21 77.7308C1827.7 69.8986 1838.46 63.1286 1847.52 54.9363C1840.7 56.1066 1833.57 57.1149 1827.78 60.4098C1814.82 67.7019 1802.89 76.3444 1793.31 86.4813C1777.81 102.344 1766.55 120.961 1747.78 134.663C1740.56 139.669 1731.65 144.314 1721.72 143.774C1710.84 143.36 1702.47 135.977 1699 128.181C1694.53 118.765 1697.25 108.61 1697.81 98.8688C1698.42 91.3787 1692.29 85.0409 1690.97 77.8388C1690.9 75.9663 1692.38 73.1935 1695.16 73.3195C1702.56 73.1035 1709.7 75.2281 1717.1 75.5342C1735.45 76.9566 1752.85 70.9248 1769.22 65.0372C1793.33 56.5927 1813.81 41.7205 1840.12 37.3992C1849.94 35.2026 1860.04 37.2732 1869.61 39.2538C1873.38 34.7345 1877.37 30.3052 1881.23 25.8039C1873.16 25.0837 1864.88 24.7416 1856.96 26.5241C1816.44 35.5267 1780.89 54.8102 1740.74 64.6951C1726.88 67.864 1708.89 70.3667 1698.01 60.7159C1688.55 52.7937 1693.23 41.0543 1695.16 31.5476C1698.15 22.2029 1691.89 13.3624 1688.88 4.61187C1704.45 1.35294 1719.68 8.62701 1735.22 5.35008C1757.4 1.82107 1780.06 3.89167 1802.49 3.58558C1827.13 3.20747 1851.81 5.26005 1876.46 3.6936C1888.34 3.60358 1901.08 1.82107 1912.34 5.7642C1921.29 9.49127 1920.24 18.6199 1920.39 25.4798C1919.18 60.2838 1919.88 95.1238 1918.37 129.928C1919.38 156.935 1918.15 183.925 1917.37 210.897C1915.06 251.372 1917.7 291.902 1915.8 332.36C1915.86 360.268 1919.25 388.266 1915.06 416.084C1914.63 504.381 1911.98 592.696 1912.79 681.011C1912.39 686.575 1912.43 694.299 1904.9 696.892C1895.23 699.413 1884.89 698.116 1874.95 698.044C1874.93 698.909 1874.93 700.655 1874.91 701.519C1885.22 701.969 1896.04 700.979 1905.93 703.896C1912.3 705.949 1910.32 712.43 1910.82 716.77C1909.16 747.414 1908.8 778.095 1908.19 808.776C1905.86 845.344 1906.78 881.967 1907.43 918.571C1908.12 938.395 1905.48 958.183 1906.17 978.006C1905.99 994.175 1907.36 1010.34 1906.15 1026.51C1905.07 1039.82 1909.09 1052.98 1908.46 1066.27C1908.26 1071.53 1905.68 1077.81 1898.57 1079.25C1885.34 1082.24 1871.79 1078.66 1858.69 1077.02C1833.5 1073.06 1807.69 1074.1 1782.23 1075.31C1761.33 1075.94 1740.42 1074.24 1719.52 1075.07C1702.23 1075.14 1685.16 1077.92 1667.87 1077.57C1627.5 1077.18 1587.15 1077.07 1546.77 1077.25C1501.92 1077.25 1457.06 1075.94 1412.2 1076.35C1383.76 1075.68 1355.39 1077.66 1326.97 1077.14C1271.64 1077.65 1216.31 1074.32 1161 1076.33C1096.22 1075.88 1032.46 1063.46 972.169 1045.02C964.319 1042.21 955.347 1040.77 947.43 1044.27C903.402 1059.73 856.705 1070.95 808.753 1074.5C796.013 1075.45 783.296 1076.89 770.511 1077.03C735.41 1076.46 700.287 1075.36 665.185 1076.12C609.921 1077.66 554.634 1076.93 499.346 1076.6C454.511 1075.67 409.631 1077.29 364.796 1076.06C329.65 1075.4 294.504 1076.08 259.358 1075.7C232.376 1075.85 205.618 1072.7 178.659 1072.35C148.716 1072.21 118.751 1072.14 88.8313 1070.97C72.0097 1070.59 55.0983 1071.8 38.6804 1074.78C31.1219 1076.01 23.3615 1077.57 15.6011 1076.64C9.81445 1076.06 4.49881 1072.43 3.48951 1067.74C1.44849 1058.92 4.34181 1050.06 5.50811 1041.29C7.23513 1027.43 7.88557 1013.46 6.92112 999.522C8.31171 958.129 4.52125 916.735 5.03711 875.341C5.77726 845.903 3.01851 816.536 3.60166 787.116C4.05024 762.467 1.31392 737.818 3.10823 713.187C3.71381 709.55 3.66894 704.166 9.16401 703.086C19.4589 700.457 30.449 701.573 41.0803 701.645C41.1476 700.637 41.2821 698.602 41.3494 697.594C30.8976 697.306 20.0644 698.26 9.94903 695.614C2.54751 693.615 4.22967 686.053 3.60166 681.155C4.27453 646.261 4.83525 611.385 4.45395 576.491C6.02397 542.822 4.88011 509.134 3.66895 475.483C3.22037 463.527 4.79039 451.608 4.63339 439.652C2.90637 407.531 3.96053 375.356 2.25594 343.235C1.40364 327.354 1.3812 311.456 1.24663 295.557C-0.570108 263.166 1.20178 230.739 1.20178 198.347C-0.256097 160.518 2.2335 122.69 0.775625 84.8788C1.20177 61.4541 -0.659821 37.9934 1.33635 14.6047C1.58306 10.1755 3.98295 5.08 9.65745 3.56757C16.4085 1.87508 23.5858 2.18117 30.5387 2.01912C71.6732 2.00112 112.808 2.16316 153.942 1.87508C166.704 1.64101 179.309 3.47755 192.026 3.71161Z" fill="#4B342C"/>
<path d="M385.577 4.45621C393.864 5.17707 401.28 1.48266 409.254 0.401367C416.759 1.33849 413.632 8.96157 411.688 12.7821C406.194 22.4777 406.797 33.3807 409.321 43.5989C418.255 83.4805 452.184 115.505 467.664 153.476C471.17 162.036 475.437 170.903 474.163 180.076C473.292 186.383 466.011 190.636 458.528 191.051C429.491 193.502 400.476 188.131 371.416 190.312C326.006 190.528 280.618 191.7 235.208 191.862C221.561 191.736 207.399 193.844 194.154 190.492C186.47 188.51 186.291 180.833 188.927 175.787C195.851 160.865 213.832 152.142 223.347 138.554C231.746 126.462 238.224 113.072 238.938 99.0691C239.363 91.3198 236.526 83.7328 236.794 75.9835C237.129 73.4065 239.296 68.9191 243.294 71.1177C249.816 76.0737 253.546 83.1561 261.074 87.3371C281.177 99.1772 305.59 107.611 319.774 124.894C325.47 131.472 323.281 141.312 314.413 145.258C287.051 159.045 252.988 157.657 223.861 167.767C217.83 169.389 216.088 174.615 213.877 178.814C242.713 179.517 269.383 168.92 295.405 160.27C319.059 153.512 344.59 144.808 369.897 151.079C389.039 155.17 401.57 168.632 419.26 174.958C416.714 168.488 412.671 162.343 406.372 157.729C366.904 127.02 313.81 111.053 274.386 80.3267C258.795 67.6576 242.892 53.6549 238.268 35.5974C235.253 25.1449 235.543 11.3765 248.521 5.32123C260.337 -1.0764 274.409 3.84346 287.073 5.17705C297.236 6.74493 306.729 1.15826 316.826 2.79822C318.21 8.72729 315.284 14.5302 314.525 20.3692C312.515 32.2634 318.523 43.7611 324.956 54.1595C339.318 76.7765 361.945 94.8521 383.276 113.18C406.238 130.913 430.786 148.484 445.126 171.804C446.131 174.255 449.951 175.012 452.006 172.885C450.554 158.72 436.996 148.286 426.386 137.941C408.494 119.992 387.051 104.638 369.473 86.4901C352.385 69.2075 333.868 51.1139 329.423 28.587C327.525 19.7745 329.401 8.49302 340.145 3.84347C354.82 -0.715973 370.567 3.26679 385.577 4.45621Z" fill="#4B342C"/>
<path d="M1504.14 4.40137C1516.4 5.56683 1528.72 8.5253 1541.15 6.78608C1553.81 5.35167 1567.92 2.46491 1579.71 8.04118C1587.77 11.6451 1589.81 19.6779 1589.38 26.4913C1588.44 42.7002 1578.81 57.6718 1567.16 70.6174C1544.2 96.132 1516.2 118.33 1490.37 141.944C1482.08 150.353 1473.27 158.69 1467.56 168.444C1464.99 172.048 1467.43 176.065 1468.21 179.776C1475.56 170.793 1481.77 161.165 1490.43 152.899C1515.46 129.912 1544.76 109.992 1567.9 85.6608C1583.42 70.7608 1596.15 53.5838 1602.04 34.6316C1604.77 26.0968 1601.1 17.4724 1601.5 8.8839C1603.21 7.12675 1605.47 6.39162 1608.27 6.71436C1618.48 7.12675 1628.74 9.04527 1638.96 7.34191C1649.49 5.87164 1661.43 3.09247 1671.06 8.38186C1683.61 14.514 1684.91 28.0333 1681.84 38.4507C1678.14 54.8747 1664.27 68.0713 1650.05 79.6004C1618.21 104.918 1577.62 121.037 1541.2 141.477C1523.84 151.823 1505.02 162.563 1496.17 179.005C1516.87 170.686 1532.71 154.297 1556.86 151.984C1587.68 148.793 1615.32 162.258 1642.99 170.811C1662.17 176.513 1681.99 183.165 1702.94 181.479C1701.12 178.127 1699.67 174.182 1695.34 172.371C1685.13 167.853 1673.28 166.974 1662.14 164.769C1645.3 161.559 1628.43 158.027 1612.44 152.648C1605.42 150.12 1597.65 146.838 1594.89 140.67C1592.14 133.463 1597.49 126.398 1603.14 121.091C1616.33 108.809 1635.2 102.157 1651.91 93.568C1661.83 88.5476 1668.78 80.8197 1674.91 72.9663C1677.51 73.6835 1680.13 74.3827 1682.78 75.0999C1682.53 84.6208 1681.43 94.1238 1681.16 103.645C1680.67 120.553 1689.63 136.905 1702.83 149.851C1711.52 159.156 1723.1 166.884 1729.28 177.589C1732.8 183.255 1732.46 192.202 1724.09 194.909C1711.9 197.581 1699.11 195.806 1686.67 196.021C1633.67 194.568 1580.62 194.533 1527.6 194.12C1507.39 193.941 1487.23 195.357 1467.05 195.483C1459.23 195.178 1449.55 195.537 1444.29 190.014C1440.05 184.151 1441.28 176.925 1442.85 170.578C1456.65 125.125 1500.76 88.9958 1508.27 41.8933C1511.29 29.2346 1505.62 16.8987 1504.14 4.40137Z" fill="#4B342C"/>
<path d="M452.473 7.48079C462.47 8.23723 471.681 11.9654 481.61 13.01C488.334 13.6044 495.058 12.5057 501.715 11.8754C499.742 28.6251 493.893 44.9606 493.198 61.8365C490.732 96.1465 497.21 130.186 500.796 164.28C501.087 176.365 502.477 188.396 503.284 200.463C504.023 205.182 501.02 210.639 494.52 211.197C479.75 212.963 464.778 211.017 449.918 211.161C422.283 211.27 394.648 210.063 367.012 210.837C350.561 211.234 334.132 210.441 317.681 210.675C257.928 211.864 198.13 210.279 138.354 211.702C105.43 211.378 72.4825 211.63 39.5577 211.522C32.789 212.152 22.86 211.035 19.5429 217.087C16.8981 225.174 18.4895 233.621 18.3998 241.869C19.2963 270.398 16.5619 298.981 18.9153 327.491C26.6254 321.061 33.8424 311.264 46.4609 311.678C58.9226 312.903 67.9775 321.404 80.3046 323.151C93.7749 325.114 107.021 319.873 117.331 313.317C134.836 302.096 145.19 285.437 152.071 268.651C158.862 251.919 160.118 234.233 161.485 216.799C163.861 217.141 166.214 217.501 168.59 217.843C170.315 238.087 166.998 258.619 157.943 277.602C150.076 295.631 137.951 313.479 117.757 324.393C103.144 332.696 82.927 334.767 66.812 328.014C56.3899 323.943 42.6955 319.423 32.3183 325.978C19.9015 334.317 19.0722 348.69 18.9153 360.721C19.3636 376.66 17.8619 393.013 23.0841 408.538C34.8286 412.014 47.6488 410.394 59.9088 410.646C92.0491 410.844 124.234 410.664 156.375 410.682C163.121 410.646 173.274 411.348 173.341 418.534C174.955 440.633 172.848 462.858 173.027 485.011C173.252 543.851 172.131 602.692 172.714 661.532C171.571 707.152 171.683 752.773 172.96 798.376C172.31 844.014 174.103 889.635 174.17 935.273C174.058 949.015 176.591 962.847 174.327 976.535C173.789 981.866 166.662 983.704 161.014 983.704C124.346 984.694 87.6337 983.613 50.9435 983.794C42.18 984.01 32.6545 982.857 24.6754 986.459C21.7842 991.862 22.4566 997.932 22.4566 1003.7C23.1289 1017.55 22.6807 1031.45 20.7083 1045.23C20.1928 1050.32 19.0049 1055.98 22.7479 1060.54C28.2167 1063.49 35.1423 1062.39 41.0818 1061.09C55.6503 1057.62 69.0533 1051.64 83.6442 1048.25C100.611 1044.29 118.295 1041.72 136.023 1042.33C141.268 1042.08 144.316 1045.8 147.073 1048.78C152.676 1055.21 158.033 1061.8 164.466 1067.74C142.344 1066.55 120.155 1066.5 97.9885 1066.01C80.0805 1065.65 61.9035 1065.2 44.3765 1068.59C35.1199 1070.21 25.5047 1072.37 16.0016 1070.93C11.4518 1070.3 9.41215 1066.3 9.36733 1062.99C9.21044 1057.17 10.6001 1051.42 11.3397 1045.66C14.0741 1028.73 12.9758 1011.64 12.9982 994.618C13.1776 989.395 13.0655 983.92 15.7551 979.057C23.1738 976.175 31.7356 976.968 39.7146 976.715C69.6136 977.022 99.5126 976.679 129.412 976.932C139.789 976.625 151.04 977.166 160.386 972.915C165.788 968.935 165.609 962.397 166.169 956.994C167.783 927.583 148.395 900.945 146.177 871.931C142.299 836.738 156.038 802.554 160.05 767.794C164.421 728.279 164.376 688.476 161.216 648.907C159.49 606.024 142.523 564.167 146.558 521.032C148.104 494.629 164.152 470.152 163.704 443.569C163.547 436.869 163.39 429.593 158.616 423.811C152.744 417.904 142.254 418.913 133.872 418.624C100.947 419.201 68.0223 418.75 35.1199 419.165C28.5977 418.876 21.0894 419.543 15.643 416.103C10.6897 411.996 10.0846 405.873 9.43458 400.488C8.98632 348.239 6.3864 295.955 7.82084 243.706C8.76219 234.017 7.39499 224.039 10.8466 214.619C13.6034 207.848 23.0617 205.434 31.0183 204.786C53.409 203.057 75.7548 206.857 98.1678 205.992C121.97 204.822 145.818 206.299 169.621 205.254C200.999 203.669 232.444 205.776 263.823 204.408C321.379 204.191 378.936 203.993 436.493 204.317C451.375 204.335 467.109 207.397 481.319 202.372C492.122 198.302 496.627 187.892 494.812 178.851C491.338 156.68 481.857 135.175 467.871 115.886C454.827 94.0032 439.989 72.4627 432.548 48.7969C429.522 37.5763 425.891 24.8789 433.4 14.2527C437.008 8.83158 445.279 6.9765 452.473 7.48079Z" fill="#9F3F33"/>
<path d="M7.39355 24.3558C7.73074 18.4494 6.78663 8.54542 17.3743 8.76151C44.2592 7.84313 71.2116 9.33774 98.119 8.88756C127.364 9.17568 156.767 7.23089 185.832 10.5622C197.094 11.8408 208.424 10.5082 219.394 8.40137C215.774 15.6043 213.302 23.3654 215.37 31.1446C216.179 39.0498 221.507 48.8638 213.212 55.3644C204.04 61.8831 190.351 59.9743 179.403 57.9935C142.111 48.0715 109.111 30.0101 71.8635 19.9981C58.6233 17.1169 41.6292 14.0377 30.547 22.4651C18.3858 31.7749 19.3075 46.3788 18.6331 58.7678C16.003 104.344 17.0371 149.975 16.3177 195.587C16.4077 199.567 12.811 202.538 9.88873 205.401C7.57339 190.761 8.56246 175.977 8.49502 161.265C9.23683 115.617 7.73074 69.9864 7.39355 24.3558Z" fill="#9F3F33"/>
<path d="M252.411 10.8609C262.579 6.16116 274.386 10.3567 284.981 11.6712C293.645 13.3638 302.444 11.5631 310.884 9.99654C309.021 16.713 306.731 23.5915 307.831 30.542C309.582 42.7324 316.787 53.8424 324.082 64.4303C332.679 76.8908 344.98 87.2986 356.854 97.7604C370.973 110.977 387.224 122.573 401.657 135.592C417.976 148.647 433.913 162.962 440.826 181.005C447.762 179.78 458.02 181.005 461.275 174.648C461.971 167.734 457.212 161.413 453.149 155.615C428.57 123.924 391.152 100.587 363.835 70.5885C352.342 58.02 340.244 44.6951 337.236 28.9214C335.889 21.8268 337.73 12.4094 347.157 9.49236C357.213 6.80939 367.763 9.79847 377.886 10.7708C387.157 12.1573 396.607 11.257 405.81 10.0506C401.837 20.6024 399.592 31.8025 402.375 42.7504C409.356 75.8644 434.115 103.757 450.703 133.953C457.257 145.856 464.597 157.704 467.874 170.543C469.333 175.819 467.964 182.931 460.602 184.768C448.682 187.361 436.135 185.596 423.969 185.596C368.661 183.291 313.241 184.48 257.91 185.74C239.863 185.956 221.973 189.18 203.882 188.225C198.674 188.297 191.514 184.336 193.848 179.744C197.933 170.705 207.608 164.457 215.15 157.308C229.426 144.685 240.582 129.398 245.138 112.652C247.989 102.586 246.036 92.2684 244.442 82.2027C260.671 97.2202 283.701 105.539 302.646 117.91C308.819 122.267 315.62 128.065 314.857 135.16C312.702 141.174 304.733 143.947 298.089 146.09C274.7 152.392 249.65 153.887 226.508 160.927C218.764 163.214 210.593 167.104 208.371 173.964C206.598 177.421 208.461 181.401 212.322 183.381C219.078 185.452 226.395 183.922 233.264 183.147C249.583 181.095 265.048 176.323 280.648 172.181C302.938 166.077 323.723 155.237 347.898 154.589C363.857 153.563 378.941 159.685 390.995 167.59C398.29 172.091 404.957 177.565 413.576 180.446C420.804 183.147 431.713 176.917 428.436 170.417C423.138 159.793 412.274 151.708 401.141 144.937C390.367 138.473 379.862 131.667 368.167 126.301C348.931 117.369 330.255 107.682 312.006 97.5263C285.048 81.6805 257.955 63.1878 246.216 37.2224C242.759 28.5793 242.534 16.875 252.411 10.8609Z" fill="#9F3F33"/>
<path d="M1443.74 12.5934C1455.37 10.8474 1468.44 6.79721 1479.64 11.8554C1489.77 16.9316 1489.77 27.7681 1488.81 36.2464C1485.77 57.5953 1473.4 77.0361 1463.16 96.603C1448.73 120.508 1430.95 143.819 1425.2 170.406C1423.68 179.28 1421.98 188.641 1425.31 197.389C1427.73 203.077 1435.4 205.688 1442.33 206.228C1458.68 207.524 1475.14 206.57 1491.56 206.534C1544.48 206.966 1597.46 205.202 1650.31 207.812C1683.12 208.748 1715.98 206.894 1748.79 207.992C1783.79 207.884 1818.81 208.91 1853.82 207.812C1869.7 207.794 1885.98 205.616 1901.59 208.748C1906.89 209.702 1907.87 214.652 1908.39 218.306C1910.24 236.217 1908.34 254.182 1908.75 272.11C1909.44 306.312 1909.62 340.531 1908.99 374.733C1908.97 388.323 1910.85 402.202 1906.67 415.558C1905.44 420.832 1897.29 420.832 1892.08 421.282C1853.97 421.733 1815.82 421.409 1777.71 421.174C1769.57 421.228 1758.61 421.715 1755.54 429.095C1750 442.847 1754.54 457.554 1758.27 471.235C1763.75 491.719 1772.94 511.898 1772.34 533.103C1772.83 564.497 1760.06 594.612 1755.74 625.591C1749.35 675.129 1748.77 725.153 1754.2 774.763C1758.96 807.903 1767.02 841.06 1764.69 874.559C1763.21 897.888 1749.53 919.219 1746.71 942.368C1745.7 951.981 1744.47 962.385 1749.95 971.313C1754.4 977.956 1765.02 978.028 1773.23 978.172C1809.04 977.992 1844.85 978.1 1880.65 978.622C1886.89 978.928 1895.84 979.504 1897.52 985.516C1902.75 1007.93 1896.33 1030.77 1900.05 1053.25C1900.31 1059.55 1902.15 1066.7 1897.52 1072.3C1887.3 1076.85 1875.38 1072.78 1864.71 1071.51C1840.42 1068.45 1815.73 1066.7 1791.15 1067.87C1780.61 1068.34 1770.08 1068.72 1759.55 1068.88C1765.07 1061.59 1770.26 1053.95 1777.71 1047.82C1781.44 1044.27 1787.61 1045.33 1792.65 1045.62C1811.43 1047.8 1830.15 1051.13 1847.84 1056.78C1859.65 1060.24 1871.55 1067.19 1884.68 1064.56C1891.88 1061.3 1890.43 1053.67 1890.56 1048.07C1888.95 1030.05 1891.1 1011.98 1890.07 993.958C1890.14 986.38 1878.64 986.362 1871.89 986.092C1833.75 985.876 1795.64 984.598 1757.53 984.706C1751.49 984.31 1744.54 984.814 1739.64 981.484C1735.86 976.714 1736.75 970.629 1736.53 965.229C1738.72 924.421 1738.48 883.542 1739.35 842.716C1740.56 807.309 1740.38 771.901 1741.16 736.494C1743.02 710.123 1741.92 683.698 1742.97 657.308C1743.69 615.313 1744.76 573.335 1744.56 531.339C1744.22 503.726 1743.8 476.113 1744.54 448.5C1744.83 438.473 1743.4 428.357 1745.3 418.384C1746.08 412.93 1754.76 413.668 1759.77 413.038C1789.65 412.462 1819.57 412.858 1849.45 413.506C1865.22 413.992 1881.08 414.208 1896.83 412.912C1900.09 396.657 1896.44 380.295 1897.14 363.95C1897.36 354.554 1897.07 344.527 1890.23 336.481C1885.28 329.965 1875.76 323.7 1865.74 326.365C1853.66 330.001 1843.04 337.759 1829.33 336.823C1805.08 337.885 1786.34 322.854 1773.68 307.932C1753.22 282.641 1744.96 251.697 1746.98 221.762C1748.79 221.384 1752.41 220.646 1754.22 220.268C1757.17 242.139 1758.78 264.748 1770.48 284.999C1778.87 299.921 1790.72 314.79 1809.24 322.602C1818.48 326.689 1829.82 329.479 1840.06 326.077C1851.96 322.926 1862.18 313.926 1875.62 316.014C1885.91 318.3 1891.68 326.257 1898.57 332.179C1899.87 297.131 1897.45 262.048 1898.93 227C1898.82 224.3 1898.73 221.564 1897.79 218.954C1893.87 214.724 1886.6 215.228 1880.83 214.922C1854.71 215.264 1828.57 214.454 1802.46 215.138C1788.26 215.642 1774.15 214.472 1759.97 214.31C1699.58 214.112 1639.2 214.202 1578.79 214.256C1531.77 213.68 1484.81 215.984 1437.79 214.976C1430.91 214.58 1421.96 214.346 1418.36 208.694C1414.15 201.565 1414.44 193.429 1414.31 185.725C1415.5 157.428 1421.45 129.436 1422.72 101.157C1426.88 71.0959 1421.51 40.7646 1413.39 11.4234C1423.37 12.7915 1433.66 14.6095 1443.74 12.5934Z" fill="#9F3F33"/>
<path d="M1511.36 10.4159C1527.59 14.2545 1544.25 11.2449 1560.68 10.488C1569.04 9.8212 1578.27 13.011 1581.07 19.8051C1583.88 28.149 1580.87 36.9615 1576.89 44.7467C1567.43 62.2816 1551.51 76.6987 1537.03 91.5845C1526.01 103.064 1512.46 112.724 1500.86 123.807C1486.44 137.539 1469.67 150.1 1459.68 166.446C1457.22 170.699 1455.47 175.691 1457.44 180.304C1460.21 185.656 1468.8 185.981 1474.86 184.809C1478.61 182.214 1479.48 177.871 1481.76 174.429C1488.02 161.526 1500.23 151.434 1512.21 141.828C1527.73 129.7 1542.24 116.778 1557.28 104.272C1577.6 86.2321 1597.01 66.4986 1607 43.1969C1611.69 33.0869 1610.64 22.1118 1608.23 11.7135C1617.3 13.5877 1626.85 15.516 1636.2 13.4976C1645.76 12.1099 1656.83 7.91092 1665.73 13.2092C1675.72 18.5616 1675.61 29.5547 1673.37 38.0247C1668.7 53.9557 1654.19 66.2283 1640.42 77.5818C1607.96 102.956 1566.11 118.13 1530.61 140.296C1517.24 148.658 1503.27 156.912 1493.25 168.085C1488.56 173.113 1488.38 179.619 1487.78 185.62C1493.9 184.845 1500.45 184.575 1505.86 181.818C1519.86 174.681 1531.53 164.427 1547.24 159.561C1562.91 155.903 1579.93 157.633 1595.11 162.12C1618.62 168.374 1640.85 177.33 1664.23 183.872C1676.57 187.062 1690.18 189.044 1702.93 186.251C1710.04 184.972 1710.39 177.312 1706.5 173.402C1700.74 167.725 1691.73 165.166 1683.39 162.859C1662.35 157.741 1640.35 155.38 1619.76 149.109C1613.37 146.91 1606.44 144.658 1602.1 140.062C1598.86 134.241 1603.36 127.988 1608.27 123.789C1623.36 111.21 1644.76 105.551 1660.99 94.1435C1666.11 90.6293 1670.91 86.8628 1675.81 83.1684C1674.33 94.9364 1672.28 106.957 1675.52 118.653C1680.01 134.475 1690.16 149.001 1703.55 161.039C1709.92 167.256 1717.64 172.807 1722.17 180.106C1724.7 183.638 1723.29 189.116 1718.04 190.378C1710.39 191.964 1702.39 191.243 1694.63 191.207C1658.89 190.108 1623.16 188.684 1587.39 188.504C1559.29 187.44 1531.12 187.206 1503.02 188.81C1487.42 189.026 1471.66 190.54 1456.14 188.792C1450.18 188.486 1448.07 183.151 1448.43 179.079C1448.9 169.545 1453.6 160.625 1457.78 151.83C1470.36 125.267 1491.29 101.911 1503.87 75.3111C1513.73 54.9288 1522.07 31.7353 1511.36 10.4159Z" fill="#9F3F33"/>
<path d="M1699.39 9.40137C1712.26 11.2046 1725.33 13.0799 1738.41 11.5292C1765.31 8.49975 1792.45 11.1685 1819.51 10.8439C1840.35 11.7275 1861.26 11.5292 1882.08 10.1948C1891.74 10.2669 1902.81 8.3555 1911.35 12.9898C1913.91 17.5339 1913.17 22.6911 1913.39 27.5417C1912.72 55.8162 1913.71 84.0906 1912.88 112.365C1910.7 143.02 1916.08 173.927 1909.7 204.401C1907.43 203.518 1905.24 202.652 1903.04 201.769C1903.58 155.732 1903.4 109.678 1902.88 63.6422C1902.5 52.354 1905.32 39.8938 1897.37 29.8138C1891.97 22.5829 1881.25 18.742 1870.97 19.3191C1850.05 20.3649 1830.58 27.2532 1811.5 33.6727C1783.85 43.5543 1758.05 58.3227 1727.37 61.5324C1718.74 62.2176 1707.22 62.2176 1702.53 55.167C1698.81 46.9444 1702.71 38.1988 1703.67 29.8499C1705.04 22.8353 1701.95 16.0011 1699.39 9.40137Z" fill="#9F3F33"/>
<path d="M33.6812 39.55C30.2093 36.0195 31.6296 31.4751 31.9678 27.4014C53.002 52.6401 85.9172 69.1159 109.251 92.7614C140.994 122.599 164.463 159.57 167.394 199.257C164.801 199.311 162.186 199.347 159.593 199.401C156.414 177.385 150.801 155.17 137.387 135.562C127.196 119.159 112.204 105.2 97.3698 91.4397C76.7415 73.6784 51.0856 59.6649 33.6812 39.55Z" fill="#9F3F33"/>
<path d="M1883.65 34.3332C1885.7 30.7416 1891.3 32.6908 1892.39 35.8493C1872.38 58.789 1844.21 75.5381 1820.29 95.5359C1797.15 116.147 1776.48 139.683 1767.42 166.882C1763.27 178.469 1760.55 190.363 1759.61 202.401C1756.51 202.329 1753.43 202.257 1750.39 202.203C1751.42 178.758 1761.71 156.504 1773.98 135.531C1792.06 106.708 1820.29 83.1004 1850.59 62.507C1863.03 54.2588 1874.34 44.9638 1883.65 34.3332Z" fill="#9F3F33"/>
<path d="M26.7257 40.4014C30.6143 45.6821 39.0397 50.6011 36.3579 57.4733C30.2344 75.6303 29.9439 96.699 43.6434 112.74C57.5665 129.251 79.2444 139.668 98.1065 152.038C103.895 155.872 108.23 160.863 112.32 165.873C97.5031 158.458 83.0437 150.555 67.3328 144.388C54.7059 139.885 47.8673 128.872 34.5476 125.363C33.8995 133.718 36.8272 141.856 36.8942 150.157C35.7098 160.538 30.3014 171.045 34.3465 181.462C36.5813 188.135 45.1408 192.114 53.3203 192.24C69.3888 193.362 84.541 184.844 100.565 188.316C108.923 189.6 115.471 194.248 121.394 198.877C89.2789 202.838 56.896 197.666 24.6026 199.04C24.5802 146.161 23.4405 93.2267 26.7257 40.4014Z" fill="#E9D9B6"/>
<path d="M58.3936 41.919C66.0984 40.6061 74.2088 39.5485 81.9362 41.3902C115.932 49.0671 141.3 71.8061 175.904 78.2248C189.827 81.6347 204.426 80.0847 218.394 77.7507C215.127 84.5341 211.995 91.591 212.784 98.9944C213.415 109.151 215.893 120.949 206.588 129.191C199.514 136.722 185.389 135.318 177.166 129.866C168.177 123.83 161.396 115.935 154.907 108.148C138.596 86.3211 119.312 64.6944 91.9616 51.2006C84.1215 47.1524 74.5468 48.3742 65.7605 47.7542C61.863 47.5536 60.4887 44.016 58.3936 41.919Z" fill="#9F3F33"/>
<path d="M1839.42 44.2419C1847.12 42.173 1855.07 44.3311 1862.39 46.3286C1852.74 53.0524 1838.88 49.6994 1828.23 54.5506C1812.94 60.882 1801.35 71.3691 1790.15 81.4994C1772.31 97.7829 1761.13 118.489 1739.75 132.294C1732.81 137.109 1722.52 138.928 1713.97 135.968C1708.11 133.328 1705.03 128.013 1704.06 122.93C1702.6 114.048 1704.85 105.149 1704.51 96.249C1704.36 90.1673 1700.63 84.7097 1697.39 79.377C1713.47 83.1046 1730.92 83.9072 1747 79.6267C1780.49 72.5105 1806.29 52.018 1839.42 44.2419Z" fill="#9F3F33"/>
<path d="M1884.95 59.4866C1882.58 53.3341 1889.71 48.9395 1893.56 44.4014C1894.14 74.3567 1895.93 104.312 1895.24 134.285C1895.39 156.581 1895.48 178.895 1893.29 201.138C1861.33 200.797 1829.31 203.739 1797.39 201.64C1801.78 197.586 1805.94 192.617 1812.91 191.344C1830.54 187.326 1847.62 196.008 1865.34 194.734C1873.68 194.483 1882.33 190.519 1885.02 183.9C1888.71 174.788 1885.33 165.245 1883.07 156.187C1880.52 146.806 1884.81 137.478 1885.62 128.133C1871.91 127.935 1866.5 139.774 1855.52 144.223C1839.06 151.326 1822.73 158.644 1806.61 166.25C1818.48 152.832 1837.47 145.64 1852.66 135.039C1869.63 124.527 1884.26 110.088 1887.61 92.6348C1890.65 81.5675 1887.68 70.3567 1884.95 59.4866Z" fill="#E9D9B6"/>
<path d="M43.1886 57.4014C53.7661 63.5795 47.7378 75.1589 53.3179 83.4145C61.3407 96.8004 77.2071 105.345 89.1068 116.292C101.163 126.661 111.495 138.331 120.302 150.633C131.014 165.609 133.815 183.366 133.344 200.401C124.223 193.501 115.909 184.721 103.18 182.156C85.7677 178.344 69.1619 188.063 51.7268 185.932C41.6871 183.999 39.222 174.352 40.7458 167.235C42.8524 156.902 46.1243 146.478 43.211 135.983C60.8253 150.163 85.1851 156.595 104.077 169.402C111.539 174.262 118.576 179.555 126.375 184.107C128.795 167 112.862 153.56 97.6227 143.696C80.0308 132.93 59.66 123.699 48.1188 107.91C37.0258 92.8081 35.4795 73.7318 43.1886 57.4014Z" fill="#9F3F33"/>
<path d="M1871.2 63.3515C1873.65 63.0288 1876.15 62.7061 1878.66 62.4014C1884.08 79.5401 1881.79 98.7404 1868.64 113.351C1851.74 131.781 1824.38 141.211 1805.03 157.614C1795.14 165.789 1790.94 177.138 1790.33 188.271C1804.7 176.582 1819.4 164.696 1838.09 157.399C1852.64 151.806 1866.59 145.011 1877.74 135.546C1876.64 142.071 1875.27 148.651 1876.21 155.248C1877.02 162.186 1879.74 169.034 1879.22 176.062C1878.82 181.655 1873.92 187.356 1866.71 188.324C1848.34 190.87 1830.79 180.705 1812.5 185.044C1799.91 187.141 1795.89 198.453 1785.5 203.401C1780.47 177.245 1793.01 150.677 1814.32 130.956C1826.88 119.536 1840.14 108.583 1854.19 98.2744C1860.41 93.5236 1866.8 88.1991 1868.86 81.297C1870.46 75.3988 1870.5 69.3393 1871.2 63.3515Z" fill="#9F3F33"/>
<path d="M55.3936 67.4014C66.0973 73.1704 75.5104 80.35 84.0333 88.1264C110.181 110.859 134.704 136.485 144.718 167.048C148.923 177.483 150.37 188.442 151.394 199.347C148.612 199.365 145.808 199.383 143.026 199.401C139.822 182.818 136.929 165.8 127.538 150.609C118.103 133.953 103.772 119.521 87.2155 107.188C74.4422 95.3241 55.4826 84.8531 55.3936 67.4014Z" fill="#E9D9B6"/>
<path d="M1844.9 83.694C1850.54 79.4075 1856.82 75.7153 1863.39 72.4014C1862.06 77.7505 1860.97 83.4598 1856.62 87.8544C1845.93 98.9309 1832.19 107.702 1819.76 117.428C1792.56 139.743 1776.18 170.775 1777.14 202.275C1773.89 202.311 1770.64 202.347 1767.41 202.401C1767.03 181.995 1774.85 162.076 1785.98 143.975C1800.15 120.796 1821.6 101.164 1844.9 83.694Z" fill="#E9D9B6"/>
<path d="M26.052 219.225C35.7903 215.345 47.2262 216.857 57.7463 216.401C79.6129 217.203 101.502 216.073 123.391 217.057C120.755 222.815 118.633 229.283 112.446 233.273C103.624 239.54 90.8254 243.312 86.8497 253.078C82.1145 265.595 93.26 277.51 91.7188 290.1C90.9371 293.872 87.14 296.477 84.3704 299.356C82.4942 290.61 80.6404 281.81 76.821 273.465C73.4706 265.503 69.5395 256.284 74.8777 248.268C80.35 241.125 90.066 237.372 98.2409 232.653C98.1962 231.05 98.0622 227.88 97.9952 226.276C88.1675 227.242 78.2728 228.098 68.3781 227.279C58.7737 226.568 48.0526 227.351 40.9052 233.273C30.0277 240.688 29.648 253.952 34.5619 263.991C40.9945 277.711 58.193 285.782 63.9779 299.793C66.3679 303.783 67.641 309.686 74.163 310.342C91.7412 313.275 108.18 303.765 119.259 293.544C133.777 280.516 138.557 262.388 138.043 245.225C137.462 235.532 139.808 226.003 143.203 216.748C146.084 216.729 148.965 216.693 151.846 216.675C154.504 243.731 147.536 271.826 129.667 294.91C119.996 306.37 106.17 317.375 88.5472 319.27C73.9397 320.691 63.6876 310.196 50.4872 307.372C41.1509 305.951 32.507 310.105 24.4438 313.312C24.7565 290.027 25.3372 266.724 24.7788 243.439C24.6895 235.386 23.4164 227.115 26.052 219.225Z" fill="#E9D9B6"/>
<path d="M131.733 217.994C132.654 217.85 134.473 217.545 135.394 217.401C133.619 228.571 131.441 239.741 131.531 251.036C130.969 270.485 120.527 291.388 98.4957 301.301C91.4216 304.264 82.5733 306.993 74.758 304.3C69.4356 297.494 66.2466 289.664 59.644 283.468C50.5038 274.202 38.3318 265.187 37.5458 252.599C36.0187 242.668 46.1919 232.845 58.6335 232.145C66.6957 231.786 74.6682 233.24 82.6631 233.923C75.3868 240.28 66.314 246.924 66.314 256.244C64.7195 268.474 74.3762 278.907 76.7792 290.58C77.6775 294.566 78.1716 298.607 78.8228 302.629C85.6275 301.534 94.2063 300.564 96.6542 294.387C102.897 281.744 90.9949 269.461 92.1851 256.801C95.0821 247.463 107.097 243.368 115.811 237.981C124.165 233.222 127.915 225.285 131.733 217.994Z" fill="#9F3F33"/>
<path d="M1763.96 221.707C1767.62 221.599 1771.3 221.509 1775.01 221.401C1779.63 240.997 1775.17 261.673 1784.34 280.567C1789.97 291.832 1798.99 302.323 1811.26 309.503C1820.22 314.451 1832.09 317.906 1842.7 314.415C1849.01 312.58 1850.82 306.839 1853.75 302.539C1860.71 289.745 1876.27 281.341 1881.65 267.827C1887.48 256.653 1885.31 242.239 1872.94 234.537C1864.62 228.941 1853.14 230.273 1843.21 231.046C1834.21 232 1825.13 231.442 1816.13 230.938C1816.2 232.414 1816.33 235.329 1816.4 236.805C1825.28 241.303 1836.22 244.92 1840.93 253.018C1845.64 261.745 1841.13 271.174 1837.87 279.668C1834.41 287.621 1833.25 296.025 1832.05 304.356C1828.9 300.235 1824.1 296.241 1824.52 291.076C1824.68 279.884 1832.94 269.015 1828.79 257.786C1824.19 246.954 1809.25 243.409 1800.12 235.743C1795.46 232.09 1796.53 226.44 1795.7 221.689C1823.45 221.437 1851.22 221.635 1878.99 222.121C1883.12 222.265 1887.32 222.499 1891.38 223.327C1893.55 230.741 1892.92 238.424 1892.9 245.982C1892.23 269.861 1892.48 293.775 1893.39 317.654C1885.36 314.703 1877.25 310.744 1868.15 310.96C1853.05 312.796 1842.12 326.202 1825.66 322.873C1800.48 318.176 1784.83 299.174 1775.64 281.017C1766.75 262.213 1761.62 241.861 1763.96 221.707Z" fill="#E9D9B6"/>
<path d="M1784.82 220.401C1787.86 225.987 1790.02 231.931 1793.9 237.212C1800.81 245.985 1815.53 248.473 1821.56 257.8C1827.38 272.159 1811.61 287.179 1821 301.161C1823.68 307.141 1831.68 308.77 1838.48 310.345C1838.82 301.752 1838.51 292.962 1842.08 284.726C1845.96 275.363 1850.53 265.445 1847.52 255.473C1845.18 246.951 1836.39 241.133 1827.87 236.442C1838.26 237.105 1848.57 235.064 1858.96 235.458C1870.67 236.299 1879.3 245.931 1878.32 255.097C1877.85 268.184 1867.03 278.711 1857.06 288.253C1850.15 294.609 1847.36 303.005 1841.29 309.772C1833.73 313.156 1824.68 310.757 1817.97 307.23C1797.89 296.775 1785.72 277.887 1784.8 258.857C1784.35 246.056 1781.86 233.13 1784.82 220.401Z" fill="#9F3F33"/>
<path d="M11.6549 421.401C14.3626 422.769 17.1606 424.028 19.6427 425.683C21.4027 435.183 18.9883 444.845 19.8007 454.399C21.8766 489.231 20.7484 524.099 19.3945 558.932C19.1237 572.336 21.5607 585.722 20.3197 599.144C18.5822 616.884 19.3043 634.678 18.5371 652.454C18.6273 661.684 17.4991 672.335 25.7577 679.783C33.1813 686.818 46.4492 685.253 55.7457 681.726C74.9706 674.368 90.2918 662.205 108.027 653.011C115.97 649.089 126.733 645.617 135.488 649.953C142.889 653.623 143.183 661.378 141.648 667.477C139.708 675.537 139.076 683.76 140.362 691.91C109.065 691.874 77.746 691.694 46.4492 692.18C34.5578 692.756 22.5761 692.234 10.8877 690.327C9.82721 660.91 11.4067 631.475 10.5718 602.04C13.5278 541.839 8.08974 481.584 11.6549 421.401Z" fill="#9F3F33"/>
<path d="M27.3989 423.567C56.0843 423.153 84.7698 423.657 113.478 423.567C113.433 426.467 113.411 429.349 113.411 432.267C95.5157 435.743 78.2016 427.962 60.2397 429.943C49.2481 430.483 38.6809 436.427 35.5086 445.091C32.0681 454.403 35.8437 463.967 37.8543 473.188C40.2224 483.275 39.1501 493.595 39.3735 503.79C40.9597 503.664 44.1544 503.412 45.7629 503.286C52.3534 493.451 60.8652 484.23 72.5718 478.016C86.9145 470.379 100.408 461.805 114.394 453.79C101.034 473.098 77.7101 485.779 61.3344 503.16C45.2938 519.802 33.9894 540.317 34.4362 561.715C34.7713 575.529 36.2235 589.362 34.9277 603.177C34.5032 614.506 31.9117 626.502 37.765 637.255C40.0884 642.226 44.2884 646.639 45.4278 651.952C45.9193 661.228 43.1714 670.36 40.8927 679.401C36.3798 676.97 29.7 675.619 28.2925 670.828C26.4829 665.803 26.4829 660.525 26.3936 655.356C26.5499 633.742 27.3765 612.129 28.2478 590.515C27.7117 563.498 28.1585 536.481 27.8457 509.464C28.3372 480.825 26.3265 452.205 27.3989 423.567Z" fill="#E9D9B6"/>
<path d="M122.475 424.036C126.766 423.8 131.08 423.601 135.394 423.401C132.108 441.401 124.665 458.766 114.921 475.116C97.1075 504.209 77.4616 532.613 61.727 562.521C53.1892 578.164 46.0148 594.605 44.1373 611.771C42.3717 622.701 52.9434 632.435 48.7639 643.401C45.1655 639.359 41.0977 635.172 40.7177 629.988C39.2426 616.647 43.3327 603.396 42.4164 590.055C41.4777 574.249 39.3097 558.08 44.4949 542.582C49.5685 523.695 64.1632 507.707 80.3001 493.949C94.3361 482.33 108.35 470.566 120.084 457.316C126.521 450.102 129.56 441.274 129.918 432.428C123.593 437.105 118.05 442.38 112.574 447.691C93.0174 465.763 62.5093 473.539 45.4784 493.641C47.3334 480.771 42.4387 468.337 40.7177 455.721C39.265 446.349 47.5569 437.069 58.9779 435.292C75.763 432.628 91.7434 440.857 108.484 439.044C116.753 437.359 118.877 429.401 122.475 424.036Z" fill="#9F3F33"/>
<path d="M143.407 423.564C144.909 423.528 147.914 423.438 149.394 423.401C148.093 431.102 147.129 438.893 144.55 446.431C132.957 477.234 113.988 505.663 96.6547 534.508C86.497 549.91 79.0526 566.326 70.8009 582.434C63.8947 595.86 60.5536 610.337 52.5038 623.401C50.3736 612.113 51.2032 600.499 55.9121 589.718C73.3123 546.721 103.135 508.072 126.208 467.069C134.101 453.171 138.608 438.277 143.407 423.564Z" fill="#E9D9B6"/>
<path d="M1767.39 427.083C1769.87 426.832 1772.38 426.617 1774.9 426.401C1777.24 445.552 1786.68 463.304 1797.03 480.447C1820.09 516.094 1843.36 551.885 1859.33 590.043C1863.24 599.798 1866.18 610.198 1863.13 620.401C1859.55 613.838 1856.96 606.989 1854.42 600.157C1841.81 568.831 1824.3 538.957 1805.95 509.567C1790.53 482.975 1771.17 456.777 1767.39 427.083Z" fill="#E9D9B6"/>
<path d="M1783.45 424.401C1789.71 430.276 1794.66 437.674 1803.32 441.446C1820.52 444.945 1836.98 436.894 1854.13 437.185C1862.69 437.62 1872.13 440.648 1875.92 447.32C1880.45 455.027 1877.7 463.766 1875.97 471.744C1873.5 480.847 1873.46 490.221 1873.7 499.505C1862.78 486.939 1849.71 475.57 1834.15 466.704C1823.23 460.611 1812.92 453.848 1803.54 446.232C1799.44 442.606 1793.54 441.137 1787.87 439.977C1789.82 446.921 1792.85 453.739 1798.01 459.578C1809.35 472.578 1822.67 484.382 1836.89 495.389C1855.83 510.275 1872.16 528.988 1875.79 550.637C1879.22 568.516 1875.59 586.575 1876.35 604.562C1875.99 617.636 1880 632.413 1868.75 643.401C1867.56 639.503 1865.61 635.623 1865.83 631.543C1867.11 625.505 1871.15 619.938 1871.13 613.683C1871.04 601.734 1866.24 590.22 1861.6 579.014C1843.46 538.779 1817.54 501.318 1794.53 462.896C1787.18 450.947 1782.83 437.801 1783.45 424.401Z" fill="#9F3F33"/>
<path d="M1795.39 427.633C1826.83 427.257 1858.3 427.167 1889.69 428.725C1892.51 449.952 1890.05 471.251 1890.41 492.532C1889.58 525.384 1890.1 558.237 1889.76 591.09C1889.54 614.431 1891.73 637.735 1891.35 661.076C1890.88 665.268 1891.17 670.033 1887.95 673.598C1884.44 675.98 1880.24 677.574 1876.25 679.401C1874.06 670.391 1870.44 661.417 1870.71 652.191C1872.86 646.119 1878.49 641.282 1880.75 635.21C1885.33 623.244 1883.39 610.543 1883.72 598.237C1883.12 579.357 1886.5 560.136 1880.46 541.614C1873.68 518.757 1853.31 500.664 1832.87 484.704C1821.38 475.855 1810.91 466.146 1802.57 455.237C1818.63 465.071 1835.71 473.902 1850.61 484.883C1861.12 492.263 1866.44 503.817 1879.68 508.707C1881.11 497.315 1879.12 485.797 1881.62 474.475C1883.23 465.447 1886.9 455.846 1882.49 446.961C1878.92 439.527 1869.37 435.317 1860 434.081C1842.51 431.108 1825.78 439.42 1808.34 437.754C1801.23 437.557 1798.61 431.699 1795.39 427.633Z" fill="#E9D9B6"/>
<path d="M1897.93 427.248C1901.05 426.96 1904.21 426.672 1907.39 426.401C1907.24 511.633 1906.38 596.864 1905.65 682.077C1905.26 685.662 1905.76 690.905 1900.31 692.13C1889.66 694.346 1878.55 693.03 1867.74 692.85C1837.28 692.058 1806.77 692.346 1776.29 692.508C1778.78 681.23 1774.12 670.169 1774.41 658.945C1775.48 651.072 1787 648.55 1795.27 650.352C1812.51 653.721 1824.59 665.016 1838.29 673.267C1850.3 680.96 1865.5 686.797 1881.21 685.068C1888.48 684.491 1894.73 679.915 1896.12 674.15C1898.74 663.683 1897.67 652.928 1897.69 642.335C1896.46 609.295 1897.62 576.254 1897.04 543.232C1897.28 504.571 1896.77 465.891 1897.93 427.248Z" fill="#9F3F33"/>
<path d="M156.804 431.401C158.773 440.285 159.445 449.602 155.663 458.269C150.023 471.793 141.788 484.505 135.365 497.795C107.728 543.838 79.0606 590.315 65.9019 640.747C63.0151 652.177 59.815 663.588 57.4428 675.108C55.0931 675.867 52.7433 676.625 50.3936 677.401C52.6762 647.807 61.9409 618.754 74.182 590.875C93.0472 547.233 123.863 507.816 143.959 464.607C149.106 453.755 151.791 442.289 156.804 431.401Z" fill="#9F3F33"/>
<path d="M1759.39 436.401C1765.85 450.848 1771.6 465.529 1779.7 479.454C1797.96 509.518 1816.66 539.437 1833.09 570.184C1850.28 604.763 1863.66 641.124 1866.39 678.401C1863.19 676.548 1857.93 675.739 1857.41 672.086C1855.86 666.869 1855.31 661.508 1854.46 656.218C1851.39 636.05 1843.85 616.53 1835.39 597.441C1821.36 561.764 1797.26 529.434 1778.75 495.251C1774.06 486.489 1767.61 478.303 1764.45 469.037C1760.39 458.477 1759.8 447.376 1759.39 436.401Z" fill="#9F3F33"/>
<path d="M99.8912 570.755C115.363 543.154 132.7 516.219 147.511 488.401C139.161 515.463 137.819 543.802 143.621 571.277C149.855 607.803 158.41 644.347 157.295 681.341C156.703 702.374 157.955 723.408 156.794 744.442C154.61 762.669 153.359 781.022 148.967 799.033C146.556 810.872 143.461 822.604 141.118 834.461C137.546 852.994 138.069 871.995 142.597 890.401C129.81 873.722 119.959 855.837 108.992 838.42C101.325 826.22 94.0666 813.841 88.4014 800.958C83.3732 789.245 76.7068 777.783 75.3644 765.314C92.8608 780.59 92.4057 802.703 104.442 820.229C107.832 824.961 113.451 829.855 120.96 829.495C127.33 829.981 132.722 826.202 134.77 821.704C140.617 809.685 135.157 796.46 139.844 784.243C141.072 778.125 145.737 771.575 142.278 765.512C129.81 763.353 116.113 764.324 104.897 758.728C93.7026 753.133 82.8044 747.177 71.4056 741.833C64.944 739.116 65.8313 732.459 64.0566 727.655C83.2367 734.996 96.3874 750.236 117.638 754.41C129.219 757.379 143.666 753.079 148.057 743.794C150.697 736.831 147.466 729.67 146.715 722.688C145.668 716.229 147.989 709.841 147.966 703.4C145.282 699.855 139.525 701.223 135.225 701.061C115.249 702.464 95.1815 702.392 75.1597 702.212C69.9039 702.284 65.1487 700.413 60.3936 698.956C89.903 696.509 119.686 698.11 149.331 697.912C148.376 689.293 146.533 680.657 147.989 672.002C148.421 664.283 151.584 654.981 143.848 648.755C135.339 640.748 119.731 641.738 109.242 646.614C93.4523 653.901 80.3244 664.337 63.8974 670.833C65.1032 666.388 65.6493 661.746 68.1748 657.626C72.3384 654.693 77.6169 653.02 82.3266 650.716C92.2465 646.29 100.301 639.579 110.721 635.8C121.392 631.932 133.382 632.076 144.781 630.888C142.051 620.776 137.546 610.898 137.25 600.48C136.431 590.548 137.546 579.806 131.107 570.827C126.693 564.944 115.135 564.674 109.538 569.622C100.21 577.251 98.1165 588.209 95.0905 598.123C91.1771 610.898 87.9463 625.13 74.4088 634.001C78.0492 611.887 90.6993 591.609 99.8912 570.755Z" fill="#E9D9B6"/>
<path d="M1776.15 501.401C1793.44 532.487 1814.27 562.368 1828.25 594.587C1833.46 607.316 1840.31 619.865 1841.58 633.385C1824.41 617.816 1825.4 595.611 1813.84 577.848C1810.5 573.21 1805.5 568.517 1798.48 567.726C1792.4 567.061 1787.13 570.764 1784.59 574.828C1779.75 582.127 1780.2 590.613 1779.73 598.614C1779.39 610.57 1773.89 621.951 1772.94 633.871C1787.28 634.68 1802.96 634.392 1815.07 641.548C1825.83 647.912 1836.49 654.798 1849.66 657.819C1850 662.224 1850.24 666.647 1850.45 671.087C1832.12 662.817 1818.57 647.966 1797.24 644.173C1785.25 641.566 1770.97 646.762 1767.08 656.381C1765.18 664.112 1769.62 671.645 1769.37 679.358C1769.25 685.65 1768.42 691.925 1767.74 698.2C1795.93 697.75 1824.14 697.678 1852.33 698.146C1852.35 699.153 1852.37 701.166 1852.39 702.173C1823.8 702.119 1795.18 702.659 1766.61 701.688C1767.47 708.987 1768.85 716.341 1767.67 723.676C1767.01 731.299 1764.16 739.39 1768.01 746.761C1773.71 754.942 1787.31 758.501 1798.19 755.032C1817.55 749.35 1832.01 736.909 1850.11 729.304C1848.68 733.96 1848.43 739.048 1845.36 743.255C1840.79 745.88 1835.4 747.426 1830.59 749.692C1820.54 754.061 1812.1 760.605 1801.36 763.931C1791.42 767.113 1780.54 767.113 1770.07 767.851C1773.01 780.238 1778.03 792.446 1777.33 805.211C1777.94 813.679 1775.84 824.592 1785.72 830.31C1793.23 834.984 1804.03 831.317 1808.01 825.114C1821.47 806.236 1818.87 781.281 1839.54 765.477C1836.53 782.216 1828.03 797.84 1820.18 813.41C1805.34 844.927 1784.23 874.179 1765.86 904.401C1777.01 873.945 1772.96 841.906 1767.31 811.018C1762.78 783.474 1757.85 755.823 1758.46 727.973C1758.98 700.375 1756.92 672.688 1761.02 645.216C1763.67 624.216 1766.92 603.217 1772.42 582.559C1776.2 567.654 1779.59 552.606 1779.57 537.359C1780 525.296 1777.67 513.357 1776.15 501.401Z" fill="#E9D9B6"/>
<path d="M115.814 572.227C119.734 570.374 126.105 571.7 127.13 575.606C130.07 584.036 128.711 592.938 129.424 601.585C129.602 609.942 132.409 618.027 135.394 625.947C122.719 626.638 109.421 628.236 99.1303 634.813C89.9531 640.608 80.7537 646.731 69.3936 649.401C70.9751 645.968 71.3314 641.698 75.2518 639.355C81.0432 635.431 87.8148 631.906 90.8887 626.038C98.1725 613.158 101.09 599.042 105.724 585.471C107.617 580.529 109.911 574.916 115.814 572.227Z" fill="#9F3F33"/>
<path d="M1789.7 577.944C1792.3 573.165 1801.81 573.306 1804.66 577.856C1817.8 594.013 1816.78 614.596 1829.43 630.964C1832.94 635.48 1839.1 638.055 1844.74 640.753C1844.96 643.963 1845.17 647.174 1845.39 650.401C1834.98 646.415 1825.79 640.894 1816.28 635.832C1805.66 630.276 1792.78 628.795 1780.39 627.472C1783.74 618.089 1785.92 608.441 1785.9 598.687C1786.48 591.773 1785.44 584.276 1789.7 577.944Z" fill="#9F3F33"/>
<path d="M49.3936 697.462C52.0678 697.422 54.7193 697.401 57.3936 697.401C57.3709 698.656 57.3256 701.146 57.3029 702.401C54.6967 702.341 52.1131 702.3 49.5295 702.26C49.4842 701.045 49.4162 698.656 49.3936 697.462Z" fill="#9F3F33"/>
<path d="M1859.48 698.401C1861.73 698.401 1864 698.418 1866.31 698.452C1866.33 699.406 1866.37 701.313 1866.39 702.284C1864.04 702.318 1861.71 702.351 1859.39 702.401C1859.41 701.397 1859.46 699.406 1859.48 698.401Z" fill="#9F3F33"/>
<path d="M16.368 708.403C30.0469 706.356 44.0632 708.098 57.8771 707.99C84.6499 708.044 111.445 708.636 138.196 707.469C137.858 714.758 137.993 722.137 140.063 729.3C141.548 734.65 142.898 740.988 137.611 745.368C132.301 751.454 121.592 750.718 114.145 747.9C95.1791 741.113 81.7027 727.541 62.7817 720.647C52.0276 716.536 38.4612 713.017 27.3471 718.259C17.8754 722.999 17.6504 733.088 17.4704 741.042C18.3703 760.754 19.0003 780.502 20.3727 800.215C21.2276 813.966 19.6077 827.736 20.6876 841.488C22.6225 862.26 21.2501 883.085 21.8575 903.875C22.555 926.011 22.465 948.165 23.0949 970.319C20.3502 971.001 17.6054 971.683 14.8831 972.401C12.7908 947.393 13.5107 922.295 13.1283 897.232C13.7132 870.303 11.9133 843.391 11.7109 816.462C11.5759 784.685 10.9909 752.89 9.39355 721.132C9.64103 716.608 9.19107 709.624 16.368 708.403Z" fill="#9F3F33"/>
<path d="M1774.76 707.401C1803.44 709.543 1832.29 708.823 1861.06 708.823C1873.52 708.913 1886.14 707.401 1898.51 709.183C1903.34 709.759 1905.15 714.114 1905.24 717.57C1905.96 729.267 1903.94 740.929 1903.52 752.627C1901.42 803.936 1899.72 855.245 1900.3 906.59C1899.96 929.194 1901.08 951.887 1897.84 974.401C1895.58 974.365 1893.36 974.365 1891.17 974.365C1892.13 944.563 1890.32 914.76 1891.42 884.975C1891.75 860.392 1893.3 835.808 1892.6 811.207C1892.22 786.569 1896.29 762.004 1895.51 737.366C1895.17 730.671 1894.35 722.501 1886.52 718.613C1877.46 713.502 1865.56 715.392 1856.36 719.225C1838.11 726.73 1823.23 738.392 1805.7 746.832C1798.63 750.09 1790.02 752.807 1781.9 750.612C1774.16 748.128 1770.96 740.659 1772.99 734.486C1775.36 725.578 1776.75 716.454 1774.76 707.401Z" fill="#9F3F33"/>
<path d="M28.1926 723.507C31.6342 721.12 36.3495 720.595 40.5062 719.401C41.78 726.727 43.5455 734.016 44.1489 741.414C45.3556 749.644 36.6624 755.649 34.2489 763.174C31.0978 773.285 32.6398 783.848 32.6622 794.177C33.6902 810.727 30.6732 827.386 33.8019 843.864C36.6401 859.058 44.6405 873.419 55.4791 885.954C73.1337 906.412 100.666 920.014 115.84 942.063C98.8111 930.487 79.324 921.244 63.8148 908.275C55.3227 901.763 50.9872 890.313 37.6904 889.445C37.4446 900.226 39.7017 911.042 37.7127 921.786C36.3719 931.102 32.5728 940.851 36.6177 950.076C41.0425 960.531 55.1662 966.572 68.3513 966.084C82.7879 965.975 96.2188 959.879 110.722 960.766C117.36 961.127 119.84 967.006 123.394 970.66C99.9285 972.107 76.3741 970.823 52.8644 971.401C46.0708 971.076 38.562 972.233 32.3046 969.755C28.8184 964.872 29.5335 958.885 29.0642 953.476C29.8687 906.991 28.4385 860.523 27.5222 814.055C28.4608 789.257 25.2651 764.549 24.3936 739.804C24.5723 734.324 24.036 728.192 28.1926 723.507Z" fill="#E9D9B6"/>
<path d="M1873.63 719.401C1878.65 720.828 1885.92 721.171 1887.39 726.226C1890.78 735.344 1888.86 744.985 1888.81 754.355C1888.45 780.859 1884.68 807.255 1885.78 833.795C1884.2 879.961 1885.17 926.163 1885.02 972.347C1852.82 972.202 1820.52 972.997 1788.39 971.209C1792.78 968.32 1796.5 963.897 1802.69 963.662C1818.8 962.074 1834 968.952 1850.09 967.941C1862 966.84 1874.67 960.846 1877.27 950.862C1881.27 938.223 1874.01 925.82 1873.65 913.236C1873.29 905.996 1876.84 897.709 1869.5 891.913C1860.55 901.067 1852.71 911.376 1840.2 917.786C1825.62 925.387 1811.17 933.132 1797.41 941.672C1809.34 927.914 1823.93 915.854 1839.04 904.353C1858.7 889.458 1873.04 869.851 1878.13 848.51C1881.2 835.908 1879.26 823.053 1878.83 810.343C1878.26 795.989 1883.37 781.6 1879.91 767.318C1878.24 759.988 1871.55 754.265 1869.2 747.205C1869.09 737.835 1871.55 728.591 1873.63 719.401Z" fill="#E9D9B6"/>
<path d="M49.3936 723.401C52.5635 723.725 55.7334 724.049 58.9033 724.392C60.5776 756.221 74.2618 786.412 88.0577 815.918C97.0986 832.931 107.099 849.62 117.234 866.236C126.298 881.575 137.236 896.157 145.429 911.856C154.872 926.366 162.528 942.785 158.108 959.401C148.152 930.759 131.41 904.115 114.31 877.902C99.264 851.51 81.2937 826.09 70.2436 798.329C60.332 774.008 51.8268 749.019 49.3936 723.401Z" fill="#9F3F33"/>
<path d="M1855.07 730.825C1855.11 726.371 1860.49 724.521 1864.39 722.401C1858.47 775.946 1832.64 826.58 1801.54 873.55C1789.02 893.74 1775.92 913.767 1766.17 934.98C1761.75 944.643 1758.58 954.648 1754.45 964.401C1754.14 954.72 1755.03 944.931 1758.98 935.734C1772.77 902.702 1794.77 872.527 1812.69 840.95C1832.53 805.924 1848.9 769.192 1855.07 730.825Z" fill="#9F3F33"/>
<path d="M69.3936 747.401C81.1121 751.388 91.0619 757.913 101.918 763.168C112.001 768.152 123.918 769.385 135.394 770.545C131.679 781.998 129.777 793.778 129.777 805.631C129.291 811.557 130.264 818.969 123.675 822.975C116.998 824.896 111.315 819.966 108.772 815.454C100.282 800.792 98.6679 784.064 89.4257 769.657C85.8217 764.129 78.6579 761.302 73.5282 756.934C71.2951 754.053 70.6317 750.591 69.3936 747.401Z" fill="#9F3F33"/>
<path d="M1812.31 765.845C1822.96 760.268 1831.91 752.406 1844.39 749.401C1842.6 760.592 1827.59 764.298 1822 773.707C1813.16 787.434 1812.09 803.373 1805.02 817.64C1802.92 821.958 1798.55 826.006 1792.54 826.401C1785.36 824.045 1785.53 816.794 1784.76 811.559C1783.96 798.444 1783.85 785.185 1779.39 772.447C1790.61 771.404 1802.58 771.044 1812.31 765.845Z" fill="#9F3F33"/>
<path d="M41.17 799.807C41.3268 784.957 37.0491 768.896 47.0603 755.401C48.8521 760.026 52.1444 764.868 50.4422 769.836C48.4937 775.545 44.7759 781.037 45.2462 787.125C45.8285 795.381 49.3896 803.239 52.5475 811.044C68.1579 847.067 91.0024 880.633 113.175 914.217C119.088 923.882 124.329 933.8 130.42 943.393C135.706 951.721 137.408 961.061 138.394 970.275C137.117 970.311 134.541 970.365 133.242 970.401C128.517 964.169 123.746 956.184 113.825 954.847C96.4672 953.185 80.2297 961.098 62.8723 959.688C50.5094 959.056 40.9685 948.741 42.8274 939.003C44.5743 925.671 47.8666 912.356 46.1421 898.879C57.43 911.597 71.4726 922.654 87.3742 931.578C102.649 940.015 115.728 950.728 131.003 959.164C126.77 937.648 107.845 921.1 89.2555 906.485C71.9205 892.394 53.8017 877.453 46.4108 857.996C38.6616 839.226 41.7076 819.209 41.17 799.807Z" fill="#9F3F33"/>
<path d="M1869.03 783.969C1869.34 775.023 1861.2 766.005 1867.61 757.401C1876.57 770.001 1874.68 784.851 1872.92 798.657C1870.58 815.001 1874.86 831.543 1871.12 847.815C1866.94 869.127 1851.38 887.937 1832.59 902.931C1819.58 913.623 1805.58 923.703 1794.53 935.799C1789.21 941.379 1787.3 948.345 1785.99 955.149C1792.34 953.835 1798.73 951.891 1803.1 947.769C1821.36 931.479 1848.03 923.487 1865.99 906.873C1866.28 918.411 1869.46 929.661 1871.57 941.019C1873.44 949.191 1866.91 957.417 1857.19 960.045C1837.31 966.525 1817.19 954.195 1797.05 958.569C1787.73 960.513 1783.27 968.019 1777.42 973.401C1776.72 951.549 1790.81 932.055 1802.81 913.209C1814.99 894.237 1828.67 875.895 1839.93 856.545C1854.04 833.775 1868.51 809.907 1869.03 783.969Z" fill="#9F3F33"/>
<path d="M1860.96 774.401C1866.46 794.755 1855.03 814.245 1845.32 832.511C1831.17 859.199 1812.66 884.177 1796.48 910.091C1786.82 925.748 1775.66 941.189 1771.41 958.519C1770.22 963.882 1767.21 968.776 1763.77 973.401C1761.73 958.465 1768.33 944.122 1775.25 930.553C1785.23 908.49 1800.5 888.37 1813.31 867.369C1832.49 837.531 1847.91 806.254 1860.96 774.401Z" fill="#E9D9B6"/>
<path d="M58.367 808.66C53.9121 798.667 50.8971 788.025 53.1696 777.401C59.8745 788.981 63.677 801.427 69.6619 813.242C82.0143 838.043 96.3916 862.177 111.826 885.842C128.319 912.898 147.376 939.882 152.394 970.203C149.716 970.257 147.039 970.329 144.384 970.401C142.741 944.969 126.226 922.584 112.209 900.452C93.5117 870.168 72.7894 840.514 58.367 808.66Z" fill="#E9D9B6"/>
<path d="M226 963.479C238.885 964.234 251.343 961.284 264.049 960.475C273.118 959.629 280.773 966.231 281.828 973.067C283.781 983.086 277.787 992.512 271.771 1000.91C261.939 1014.3 248.717 1025.77 237.897 1038.6C232.936 1044.46 229.524 1052.9 234.552 1059.39C242.162 1065.36 254.127 1064.59 263.982 1064.66C311.751 1061.44 359.723 1063.8 407.582 1063.17C455.463 1062.99 503.345 1063.24 551.204 1064.45C579.646 1064.57 608.065 1064.37 636.507 1063.62C682.907 1063.57 729.329 1062.94 775.752 1063.91C807.022 1063.73 838.135 1059.57 868.17 1052.66C887.004 1048.26 906.152 1044.37 924.021 1037.73C930.015 1035.29 936.816 1035.32 943.371 1035.72C943.371 1036.91 943.394 1039.28 943.394 1040.47C918.858 1048.1 894.367 1056.06 868.911 1061.57C850.683 1065.62 831.76 1066.82 813.128 1069.18C785.853 1072.25 758.265 1070.04 730.856 1070.47C667.979 1070.76 605.124 1071.91 542.27 1071.14C445.721 1071.82 349.15 1069.68 252.601 1070.83C244.766 1070.49 236.64 1071.1 229.075 1069.11C224.204 1066.86 226.045 1061.33 225.394 1057.58C226.651 1026.28 235.069 994.526 226 963.479Z" fill="#9F3F33"/>
<path d="M337.041 963.471C344.834 962.144 354.418 959.186 361.136 964.26C369.421 969.908 367.07 980.073 361.359 986.42C345.573 1004.44 319.06 1012.76 296.466 1023.98C289.659 1027.32 281.508 1033.59 285.427 1040.57C292.548 1044.56 303.408 1045.25 310.126 1040.32C318.321 1034.88 326.472 1029.31 335.899 1025.22C354.015 1017.08 373.429 1008.81 385.006 994.435C392.082 985.847 392.418 975.233 392.776 965.318C404.756 965.443 416.355 962.951 428.156 961.911C439.24 960.782 448.287 969.8 446.562 978.227C444.435 987.245 436.038 994.273 427.35 999.76C416.221 1006.34 403.591 1011.13 390.738 1015.12C368.749 1022.24 344.879 1025.69 324.569 1035.96C324.614 1037.48 324.726 1040.53 324.77 1042.04C335.16 1043.08 345.842 1043.76 356.075 1041.53C374.28 1037.98 392.462 1032.01 411.563 1033.93C431.448 1036.12 450.481 1041.66 470.365 1043.85C492.915 1046 516.046 1046.97 538.281 1042.54C536.96 1038.68 537.363 1033.72 532.504 1031.42C521.89 1025.49 508.141 1026.89 495.982 1027.6C480.554 1028.79 464.387 1030.02 449.451 1025.88C444.413 1024.65 441.188 1019.88 443.338 1015.91C448.645 1005.46 461.991 999.132 466.85 988.428C469.783 981.203 468.776 973.458 468.932 965.999C473.008 974.641 477.061 983.552 484.719 990.67C499.184 1004.31 517.658 1014.64 534.542 1026.24C540.073 1030.26 546.544 1036.03 543.7 1042.52C541.887 1048.56 532.773 1048.13 526.705 1048.4C457.982 1048.24 389.283 1045.73 320.561 1046.59C302.49 1046.7 284.397 1047.31 266.394 1045.89C267.804 1041.14 269.26 1036.21 273.313 1032.43C285.27 1020.58 296.332 1007.88 303.542 993.718C308.536 984.143 308.088 973.619 307.394 963.489C317.179 964.887 327.346 965.73 337.041 963.471Z" fill="#9F3F33"/>
<path d="M1473.35 975.037C1473.08 967.956 1482.2 962.56 1490.62 963.51C1502.37 964.281 1514.06 966.235 1525.93 965.357C1525.68 977.171 1527.47 989.613 1536.5 999.419C1550.27 1016.2 1574.47 1023.57 1594.85 1033.88C1603.92 1038.16 1611.64 1046.07 1623.13 1045.55C1628.55 1045.53 1636 1043.11 1635.13 1037.84C1633.7 1030.88 1624.87 1027.31 1618.29 1023.66C1596.15 1012.9 1571.16 1003.29 1556.98 985.095C1551.18 978.462 1552.98 965.679 1565.04 964.944C1580.9 965.016 1596.89 968.386 1612.6 964.783C1608.04 988.017 1622.25 1010.32 1639.23 1028.32C1645.09 1034.02 1649.3 1040.63 1652.39 1047.57C1628.46 1049.29 1604.41 1047.73 1580.43 1048.15C1552.8 1048.56 1525.23 1046.08 1497.6 1046.5C1472.95 1046.82 1448.27 1045.83 1423.66 1047.14C1413.12 1047.48 1402.55 1047.95 1391.98 1047.64C1386.05 1047.32 1379.08 1046.68 1375.43 1042.41C1374.9 1036.19 1379.84 1030.85 1385.04 1026.65C1396.35 1017.65 1409.98 1010.82 1421.6 1002.09C1435.4 992.32 1445.52 979.681 1452.24 966.02C1451.97 975.647 1450.45 986.099 1457.16 994.722C1462.11 1002.99 1472.97 1008.8 1475.01 1018.14C1476.2 1023.91 1468.07 1026.04 1462.56 1027.15C1441.58 1030.38 1420.17 1026.36 1399.08 1028.21C1392.5 1028.91 1385.2 1030.29 1381.08 1034.84C1379.13 1038.3 1381.14 1042.75 1386.25 1043.25C1401.52 1045.56 1417.17 1043.95 1432.62 1044.08C1450.8 1044.24 1468.76 1041.58 1486.43 1038.45C1498.77 1036.35 1511.39 1034.05 1524.09 1035.22C1539.83 1036.56 1554.27 1042.34 1569.77 1044.67C1578.61 1046.12 1587.62 1044.58 1596.35 1043.23C1593.77 1039.92 1591.94 1035.87 1587.5 1033.84C1574.74 1027.48 1559.98 1024.57 1546.01 1020.45C1526.13 1014.73 1505.93 1008.53 1489.25 997.877C1480.74 992.194 1473.19 984.306 1473.35 975.037Z" fill="#9F3F33"/>
<path d="M1641.28 966.928C1646.11 962.014 1654.65 963.459 1661.34 964.127C1671.9 965.663 1682.63 966.349 1693.39 966.313C1691.37 976.177 1689.02 986.023 1688.57 996.032C1686.98 1021.09 1694.69 1045.91 1692.07 1070.97C1668.63 1073.68 1644.96 1071.71 1621.43 1071.71C1578.81 1071.06 1536.17 1072.2 1493.57 1071.29C1453.95 1070.95 1414.34 1070.9 1374.72 1071.26C1310.41 1072.65 1246.09 1070.64 1181.78 1070.95C1139.65 1072.11 1097.19 1069.2 1056.21 1061.03C1029.02 1055.36 1002.01 1048.93 975.831 1040.67C957.818 1035.34 939.58 1030.56 921.792 1024.74C883.41 1012.06 843.346 1001.61 801.869 998.38C784.215 997.441 766.583 995.544 748.839 995.996C727.551 996.357 706.218 995.454 684.974 996.754C663.238 998.398 641.523 995.092 619.764 996.285C582.01 995.273 544.234 996.429 506.503 995.923C500.178 996.14 496.476 991.497 492.394 988.408C535.239 987.306 578.085 989.6 620.908 989.329C646.346 988.372 671.784 990.54 697.222 989.185C723.446 989.113 749.691 988.751 775.937 989.185C826.185 992.184 876.434 999.591 923.474 1014.48C980.744 1032.16 1037.95 1051.4 1098.8 1059.53C1122.36 1063.06 1146.45 1064.21 1170.36 1063.26C1199.59 1061.88 1228.84 1063.29 1258.1 1063.56C1343.36 1064.21 1428.63 1063.62 1513.89 1064.19C1559.45 1065.93 1605.08 1064.1 1650.66 1065.87C1660.96 1065.78 1672.26 1066.85 1681.62 1062.64C1686.73 1057.67 1685.3 1050.54 1681.66 1045.32C1669.03 1026.38 1650.35 1010.23 1640.36 990.142C1637.07 982.844 1634.73 973.504 1641.28 966.928Z" fill="#9F3F33"/>
<path d="M163.775 990.222C167.322 989.615 170.846 989.008 174.394 988.401C174.346 990.396 174.322 992.39 174.275 994.401C170.632 994.315 167.013 994.228 163.394 994.176L163.775 990.222Z" fill="#9F3F33"/>
<path d="M1034.29 1003.85C1084.38 990.93 1137.85 987.397 1190.39 989.545C1207.76 990.359 1225.09 988.453 1242.47 988.731C1287.29 990.809 1332.13 987.691 1376.99 988.557C1393.81 988.505 1410.8 987.847 1427.39 990.393C1423.51 993.39 1419.08 996.802 1413.07 996.126C1373.4 994.672 1333.72 996.611 1294.06 996.473C1269.37 996.785 1244.69 995.97 1220.03 996.611C1198.37 997.356 1176.69 996.057 1155.03 996.663C1110.55 996.992 1066.26 1003.37 1024.4 1014.92C1012.77 1017.88 1001.63 1021.86 989.967 1024.72C983.33 1026.65 976.649 1024.03 970.394 1022.49C990.752 1014.56 1012.45 1008.86 1034.29 1003.85Z" fill="#9F3F33"/>
<path d="M29.6691 990.148C42.7418 989.402 55.8368 989.348 68.9317 989.512C97.4116 989.457 125.936 988.984 154.394 990.53C145.634 993.549 133.895 994.786 129.582 1002.73C123.713 1013.85 130.049 1025.76 135.229 1036.18C109.506 1036.74 84.0054 1041.18 60.2388 1049.24C50.8789 1052.05 41.9859 1056.47 31.9368 1057.4C25.8896 1054.93 27.5126 1048.98 27.8238 1044.51C30.4028 1026.45 29.6024 1008.26 29.6691 990.148Z" fill="#E9D9B6"/>
<path d="M1740.39 991.401C1743.37 991.522 1746.37 991.661 1749.39 991.816C1748.84 993.941 1748.29 996.084 1747.79 998.244C1745.51 998.606 1743.25 999.004 1741.04 999.401C1740.8 996.723 1740.59 994.045 1740.39 991.401Z" fill="#9F3F33"/>
<path d="M1754.39 992.339C1768.28 990.781 1782.3 991.614 1796.27 991.705C1825.84 991.614 1855.42 991.904 1884.95 993.335C1886.01 1015.35 1884.77 1037.37 1885.31 1059.4C1876.24 1058.71 1867.22 1057.26 1858.88 1054.27C1835.09 1046.38 1810.02 1040.8 1784.26 1039.31C1789.39 1028.95 1794.64 1017.01 1788.49 1006.2C1782.84 995.473 1766.35 995.473 1754.39 992.339Z" fill="#E9D9B6"/>
<path d="M136.208 1006.48C137.715 1001.54 143.699 998.035 150.043 998.432C163.834 998.829 177.535 1000.96 191.394 1000.29C190.224 1012.75 188.199 1025.21 189.166 1037.72C189.324 1044.2 190.764 1051.13 187.299 1057.27C184.329 1061.48 179.222 1064.28 174.768 1067.4C163.137 1056.95 153.261 1045.36 144.082 1033.48C138.142 1025.48 133.44 1015.89 136.208 1006.48Z" fill="#9F3F33"/>
<path d="M1726.39 1005.16C1739.33 1005.75 1751.68 1002.26 1764.42 1001.42C1776.81 1000.88 1785.45 1011.66 1782.97 1020.71C1778.55 1039.95 1761.28 1054.89 1747.6 1070.4C1743.07 1068.36 1737.75 1067.04 1734.26 1063.91C1729.75 1057.68 1731.17 1050.15 1730.9 1043.27C1731.46 1030.46 1730.07 1017.63 1726.39 1005.16Z" fill="#9F3F33"/>
<path d="M198.061 1048.4C204.483 1049.26 210.927 1050.16 217.394 1050.96C217.193 1056.76 217.148 1062.58 217.215 1068.4C208.608 1068.2 200.001 1068.14 191.394 1068.29C194.248 1061.82 196.255 1055.12 198.061 1048.4Z" fill="#9F3F33"/>
<path d="M1700.65 1052.49C1707.26 1051.88 1713.86 1051.17 1720.47 1050.4C1722.5 1056.8 1724.87 1063.13 1727.39 1069.4C1718.39 1069.25 1709.37 1069.08 1700.39 1068.84C1700.48 1063.37 1700.54 1057.93 1700.65 1052.49Z" fill="#9F3F33"/>
</g>
<defs>
<clipPath id="clip0_517_590">
<rect width="1920" height="1080" fill="white"/>
</clipPath>
</defs>
</svg>
