<svg xmlns="http://www.w3.org/2000/svg" xmlns:xlink="http://www.w3.org/1999/xlink" width="1920" zoomAndPan="magnify" viewBox="0 0 1440 809.999993" height="1080" preserveAspectRatio="xMidYMid meet" version="1.0"><defs><clipPath id="484a912f20"><path d="M 479 630 L 524 630 L 524 693 L 479 693 Z M 479 630 " clip-rule="nonzero"/></clipPath><clipPath id="1a8fc7e257"><path d="M 501.527344 625.738281 L 546.851562 663.898438 L 518.835938 697.175781 L 473.511719 659.015625 Z M 501.527344 625.738281 " clip-rule="nonzero"/></clipPath><clipPath id="6dadc91d62"><path d="M 501.527344 625.738281 L 546.851562 663.898438 L 518.835938 697.175781 L 473.511719 659.015625 Z M 501.527344 625.738281 " clip-rule="nonzero"/></clipPath><clipPath id="eddf925cb1"><path d="M 501.527344 625.738281 L 546.851562 663.898438 L 518.835938 697.175781 L 473.511719 659.015625 Z M 501.527344 625.738281 " clip-rule="nonzero"/></clipPath><clipPath id="98522fdb8b"><path d="M 473 657 L 482 657 L 482 665 L 473 665 Z M 473 657 " clip-rule="nonzero"/></clipPath><clipPath id="c0b64fd604"><path d="M 501.527344 625.738281 L 546.851562 663.898438 L 518.835938 697.175781 L 473.511719 659.015625 Z M 501.527344 625.738281 " clip-rule="nonzero"/></clipPath><clipPath id="60fe7f76cc"><path d="M 501.527344 625.738281 L 546.851562 663.898438 L 518.835938 697.175781 L 473.511719 659.015625 Z M 501.527344 625.738281 " clip-rule="nonzero"/></clipPath><clipPath id="653a034fd4"><path d="M 501.527344 625.738281 L 546.851562 663.898438 L 518.835938 697.175781 L 473.511719 659.015625 Z M 501.527344 625.738281 " clip-rule="nonzero"/></clipPath><clipPath id="e40ff6ff17"><path d="M 512 689 L 521 689 L 521 698 L 512 698 Z M 512 689 " clip-rule="nonzero"/></clipPath><clipPath id="561596e6d6"><path d="M 501.527344 625.738281 L 546.851562 663.898438 L 518.835938 697.175781 L 473.511719 659.015625 Z M 501.527344 625.738281 " clip-rule="nonzero"/></clipPath><clipPath id="1d11ea40a2"><path d="M 501.527344 625.738281 L 546.851562 663.898438 L 518.835938 697.175781 L 473.511719 659.015625 Z M 501.527344 625.738281 " clip-rule="nonzero"/></clipPath><clipPath id="5bb58f2a32"><path d="M 501.527344 625.738281 L 546.851562 663.898438 L 518.835938 697.175781 L 473.511719 659.015625 Z M 501.527344 625.738281 " clip-rule="nonzero"/></clipPath></defs><path stroke-linecap="butt" transform="matrix(0, -0.75, 0.75, 0, 699.266755, 540.363089)" fill="none" stroke-linejoin="miter" d="M -0.00025658 1.998493 L 62.359122 1.998493 " stroke="#545454" stroke-width="4" stroke-opacity="1" stroke-miterlimit="4"/><path stroke-linecap="butt" transform="matrix(0, -0.75, 0.75, 0, 737.516753, 540.363089)" fill="none" stroke-linejoin="miter" d="M -0.00025658 1.998496 L 62.359122 1.998496 " stroke="#545454" stroke-width="4" stroke-opacity="1" stroke-miterlimit="4"/><path stroke-linecap="butt" transform="matrix(0, -0.75, 0.75, 0, 530.581492, 540.363089)" fill="none" stroke-linejoin="miter" d="M -0.00025658 2.00072 L 62.359122 2.00072 " stroke="#545454" stroke-width="4" stroke-opacity="1" stroke-miterlimit="4"/><path stroke-linecap="butt" transform="matrix(0, -0.75, 0.75, 0, 568.831682, 540.363089)" fill="none" stroke-linejoin="miter" d="M -0.00025658 2.000466 L 62.359122 2.000466 " stroke="#545454" stroke-width="4" stroke-opacity="1" stroke-miterlimit="4"/><path stroke-linecap="butt" transform="matrix(-0.478847, -0.57724, 0.57724, -0.478847, 491.276022, 463.585629)" fill="none" stroke-linejoin="miter" d="M -0.000303706 1.998338 L 62.361827 2.002711 " stroke="#545454" stroke-width="4" stroke-opacity="1" stroke-miterlimit="4"/><path stroke-linecap="butt" transform="matrix(-0.478847, -0.57724, 0.57724, -0.478847, 523.325548, 440.875078)" fill="none" stroke-linejoin="miter" d="M -0.000975174 1.999955 L 62.360472 1.996994 " stroke="#545454" stroke-width="4" stroke-opacity="1" stroke-miterlimit="4"/><path stroke-linecap="butt" transform="matrix(0.708891, -0.244896, 0.244896, 0.708891, 537.032019, 281.776355)" fill="none" stroke-linejoin="miter" d="M 0.00153693 2.002191 L 62.363061 2.000297 " stroke="#545454" stroke-width="4" stroke-opacity="1" stroke-miterlimit="4"/><path stroke-linecap="butt" transform="matrix(0.708891, -0.244896, 0.244896, 0.708891, 525.63538, 243.912941)" fill="none" stroke-linejoin="miter" d="M -0.000786584 2.001575 L 62.360737 1.99968 " stroke="#545454" stroke-width="4" stroke-opacity="1" stroke-miterlimit="4"/><path stroke-linecap="butt" transform="matrix(0.476576, -0.579116, 0.579116, 0.476576, 636.784966, 238.633587)" fill="none" stroke-linejoin="miter" d="M -0.000693247 1.997476 L 62.361768 2.001298 " stroke="#545454" stroke-width="4" stroke-opacity="1" stroke-miterlimit="4"/><path stroke-linecap="butt" transform="matrix(0.476576, -0.579116, 0.579116, 0.476576, 605.907096, 215.820859)" fill="none" stroke-linejoin="miter" d="M 0.00150353 2.000625 L 62.360655 2.000425 " stroke="#545454" stroke-width="4" stroke-opacity="1" stroke-miterlimit="4"/><path stroke-linecap="butt" transform="matrix(0.477895, 0.578028, -0.578028, 0.477895, 773.490543, 201.629659)" fill="none" stroke-linejoin="miter" d="M 0.00173426 1.998925 L 62.362179 2.000566 " stroke="#545454" stroke-width="4" stroke-opacity="1" stroke-miterlimit="4"/><path stroke-linecap="butt" transform="matrix(0.477895, 0.578028, -0.578028, 0.477895, 807.06431, 178.81696)" fill="none" stroke-linejoin="miter" d="M 0.00232381 1.998629 L 62.362769 2.000271 " stroke="#545454" stroke-width="4" stroke-opacity="1" stroke-miterlimit="4"/><path stroke-linecap="butt" transform="matrix(0.704769, 0.256515, -0.256515, 0.704769, 857.773019, 266.791207)" fill="none" stroke-linejoin="miter" d="M 0.00147121 1.997298 L 62.361132 1.997155 " stroke="#545454" stroke-width="4" stroke-opacity="1" stroke-miterlimit="4"/><path stroke-linecap="butt" transform="matrix(0.704769, 0.256515, -0.256515, 0.704769, 869.814226, 229.633441)" fill="none" stroke-linejoin="miter" d="M -0.000525151 2.000175 L 62.359136 2.000032 " stroke="#000000" stroke-width="4" stroke-opacity="1" stroke-miterlimit="4"/><path stroke-linecap="butt" transform="matrix(0.482091, -0.574533, 0.574533, 0.482091, 913.251056, 439.748614)" fill="none" stroke-linejoin="miter" d="M 0.000452988 1.996686 L 62.363453 1.999792 " stroke="#545454" stroke-width="4" stroke-opacity="1" stroke-miterlimit="4"/><path stroke-linecap="butt" transform="matrix(0.482091, -0.574533, 0.574533, 0.482091, 945.950983, 462.459141)" fill="none" stroke-linejoin="miter" d="M 0.00277496 2.000305 L 62.362428 1.999421 " stroke="#545454" stroke-width="4" stroke-opacity="1" stroke-miterlimit="4"/><path stroke-linecap="butt" transform="matrix(0, -0.75, 0.75, 0, 868.016747, 540.363089)" fill="none" stroke-linejoin="miter" d="M -0.00025658 1.998505 L 62.359122 1.998505 " stroke="#545454" stroke-width="4" stroke-opacity="1" stroke-miterlimit="4"/><path stroke-linecap="butt" transform="matrix(0, -0.75, 0.75, 0, 906.266745, 540.363089)" fill="none" stroke-linejoin="miter" d="M -0.00025658 1.998507 L 62.359122 1.998507 " stroke="#545454" stroke-width="4" stroke-opacity="1" stroke-miterlimit="4"/><path stroke-linecap="butt" transform="matrix(-0.711593, 0.236928, -0.236928, -0.711593, 691.481875, 600.464582)" fill="none" stroke-linejoin="miter" d="M 0.000924134 1.998096 L 62.360384 1.999889 " stroke="#545454" stroke-width="4" stroke-opacity="1" stroke-miterlimit="4"/><path stroke-linecap="butt" transform="matrix(-0.711593, 0.236928, -0.236928, -0.711593, 703.766275, 641.670564)" fill="none" stroke-linejoin="miter" d="M -0.0012367 2.001392 L 62.359869 1.998243 " stroke="#545454" stroke-width="4" stroke-opacity="1" stroke-miterlimit="4"/><path stroke-linecap="butt" transform="matrix(-0.714937, -0.226639, 0.226639, -0.714937, 793.01639, 615.169141)" fill="none" stroke-linejoin="miter" d="M 0.00156479 2.000883 L 62.359588 2.000948 " stroke="#545454" stroke-width="4" stroke-opacity="1" stroke-miterlimit="4"/><path stroke-linecap="butt" transform="matrix(-0.714937, -0.226639, 0.226639, -0.714937, 778.228959, 655.887107)" fill="none" stroke-linejoin="miter" d="M -0.00164264 2.000803 L 62.361346 1.999294 " stroke="#545454" stroke-width="4" stroke-opacity="1" stroke-miterlimit="4"/><g clip-path="url(#484a912f20)"><g clip-path="url(#1a8fc7e257)"><g clip-path="url(#6dadc91d62)"><g clip-path="url(#eddf925cb1)"><path fill="#231f20" d="M 521.503906 676.519531 C 523.128906 671.269531 523.71875 665.820312 523.253906 660.324219 C 522.789062 654.828125 521.292969 649.558594 518.808594 644.667969 C 516.234375 639.601562 512.710938 635.164062 508.328125 631.472656 L 507.589844 630.851562 L 479.574219 664.125 L 481.054688 665.371094 L 507.8125 633.589844 C 523.980469 647.863281 526.0625 672.476562 512.53125 689.335938 L 511.28125 690.820312 L 512.769531 692.070312 L 513.394531 691.332031 C 517.089844 686.9375 519.820312 681.957031 521.503906 676.519531 " fill-opacity="1" fill-rule="nonzero"/></g></g></g></g><g clip-path="url(#98522fdb8b)"><g clip-path="url(#c0b64fd604)"><g clip-path="url(#60fe7f76cc)"><g clip-path="url(#653a034fd4)"><path fill="#231f20" d="M 480.316406 664.75 L 473.511719 659.019531 L 474.757812 657.535156 L 481.5625 663.265625 L 480.316406 664.75 " fill-opacity="1" fill-rule="nonzero"/></g></g></g></g><g clip-path="url(#e40ff6ff17)"><g clip-path="url(#561596e6d6)"><g clip-path="url(#1d11ea40a2)"><g clip-path="url(#5bb58f2a32)"><path fill="#231f20" d="M 518.835938 697.179688 L 512.03125 691.449219 L 513.277344 689.964844 L 520.082031 695.695312 L 518.835938 697.179688 " fill-opacity="1" fill-rule="nonzero"/></g></g></g></g><path fill="#000000" d="M 673.042969 774.257812 C 618.527344 767.257812 563.625 746.722656 517.523438 716.089844 C 345.328125 601.683594 298.726562 374.589844 412.214844 202.878906 C 449.960938 145.78125 511.238281 94.28125 573.265625 67.535156 C 687.800781 18.148438 819.390625 29.65625 922.34375 98.070312 C 1094.539062 212.480469 1141.140625 439.570312 1027.652344 611.285156 C 950.535156 727.953125 811.167969 792 673.023438 774.257812 Z M 702.589844 751.65625 C 702.589844 748.125 652.519531 591.175781 636.957031 545.925781 L 631.53125 530.148438 L 515.039062 529.320312 C 450.96875 528.863281 397.414062 529.621094 396.035156 531 C 392.554688 534.480469 409.121094 568.4375 429.273438 599.140625 C 481.132812 678.140625 559.085938 730.363281 653.6875 749.484375 C 688.621094 756.542969 702.585938 757.167969 702.585938 751.660156 Z M 783.714844 749.734375 C 879.984375 730.960938 958.101562 679.109375 1010.605469 599.136719 C 1030.757812 568.4375 1047.324219 534.480469 1043.839844 530.996094 C 1042.460938 529.617188 988.910156 528.859375 924.839844 529.316406 L 808.34375 530.144531 L 802.921875 545.921875 C 787.359375 591.171875 737.289062 748.125 737.289062 751.652344 C 737.289062 757.230469 747.398438 756.808594 783.710938 749.730469 Z M 754.3125 626.6875 C 770.851562 575.660156 783.644531 532.707031 782.734375 531.238281 C 781.828125 529.773438 753.570312 528.570312 719.941406 528.570312 C 686.308594 528.570312 658.054688 529.773438 657.144531 531.238281 C 655.695312 533.585938 712.863281 714.699219 717.335938 721.941406 C 718.292969 723.484375 720.234375 723.5625 721.652344 722.109375 C 723.070312 720.65625 737.765625 677.714844 754.308594 626.6875 Z M 621.199219 504.796875 C 623.179688 502.816406 587.371094 389.980469 583.542969 386.152344 C 580.964844 383.574219 421.21875 497.574219 419.183594 503.449219 C 418.085938 506.621094 618.039062 507.957031 621.199219 504.800781 Z M 814.488281 441.515625 C 826.019531 405.785156 835.019531 373.957031 834.484375 370.785156 C 833.492188 364.898438 726.867188 285.609375 719.941406 285.609375 C 713.019531 285.609375 606.394531 364.898438 605.398438 370.785156 C 604.863281 373.953125 613.863281 405.78125 625.398438 441.515625 L 646.367188 506.484375 L 793.519531 506.484375 Z M 1020.699219 503.449219 C 1018.664062 497.574219 858.921875 383.574219 856.34375 386.152344 C 852.515625 389.980469 816.707031 502.816406 818.6875 504.796875 C 821.84375 507.957031 1021.796875 506.617188 1020.699219 503.445312 Z M 484.484375 427.652344 C 535.242188 390.730469 576.195312 358.929688 575.488281 356.988281 C 574.238281 353.550781 537.046875 238.664062 515.679688 172.222656 C 509.855469 154.117188 503.214844 138.675781 500.921875 137.910156 C 498.628906 137.148438 485.457031 148.191406 471.644531 162.457031 C 402.242188 234.144531 368.136719 322.246094 372.226562 419.277344 C 374.367188 470.039062 379.707031 498.042969 386.886719 496.167969 C 389.804688 495.402344 433.722656 464.574219 484.484375 427.652344 Z M 1062.25 477.296875 C 1064.351562 466.449219 1066.796875 440.339844 1067.6875 419.277344 C 1071.777344 322.246094 1037.675781 234.148438 968.269531 162.457031 C 954.460938 148.191406 941.285156 137.144531 938.992188 137.910156 C 936.699219 138.671875 930.058594 154.113281 924.238281 172.222656 C 918.417969 190.332031 902.382812 239.894531 888.605469 282.367188 C 868.851562 343.261719 864.386719 360.363281 867.472656 363.238281 C 878.222656 373.261719 1051.359375 497.015625 1054.628906 497.015625 C 1056.773438 497.015625 1060.085938 488.433594 1062.246094 477.296875 Z M 654.429688 304.359375 C 678.328125 286.933594 697.882812 271.332031 697.882812 269.691406 C 697.882812 266.515625 539.140625 149.933594 534.8125 149.933594 C 533.40625 149.933594 532.257812 150.933594 532.257812 152.152344 C 532.257812 153.375 544.324219 191.546875 559.074219 236.976562 C 573.820312 282.40625 585.886719 320.277344 585.886719 321.140625 C 585.886719 322 588.085938 327.964844 590.773438 334.398438 C 596.550781 348.230469 590.089844 351.28125 654.433594 304.363281 Z M 864.5625 287.1875 C 874.152344 257.683594 887.773438 215.785156 894.832031 194.082031 C 908.589844 151.789062 909.023438 149.929688 905.113281 149.929688 C 900.746094 149.929688 742.046875 266.53125 742.046875 269.742188 C 742.046875 274.402344 842.207031 346.058594 844.828125 343.277344 C 846.09375 341.929688 854.976562 316.691406 864.566406 287.1875 Z M 819.136719 184.519531 L 911.664062 117.21875 L 904.15625 111.140625 C 869.703125 83.234375 783.019531 58.429688 719.964844 58.429688 C 656.914062 58.429688 570.226562 83.234375 535.765625 111.148438 L 528.25 117.234375 L 622.53125 185.789062 C 675.6875 224.441406 718.945312 253.792969 721.710938 253.082031 C 724.40625 252.386719 768.246094 221.535156 819.136719 184.519531 Z M 819.136719 184.519531 " fill-opacity="1" fill-rule="nonzero"/></svg>